<?xml version='1.0' encoding='utf-8'?>
<mlt LC_NUMERIC="C" producer="main_bin" version="7.0.0" root="/home/tom/phd/videos/phrg_vid">
 <profile frame_rate_num="60" sample_aspect_num="1" display_aspect_den="9" colorspace="709" progressive="1" description="HD 1080p 60 fps" display_aspect_num="16" frame_rate_den="1" width="1920" height="1080" sample_aspect_den="1"/>
 <producer id="producer0" in="00:00:00.000" out="00:00:10.983">
  <property name="length">660</property>
  <property name="eof">pause</property>
  <property name="resource">media/videos/scene/1080p60/CycleReduction.mp4</property>
  <property name="audio_index">-1</property>
  <property name="video_index">0</property>
  <property name="mute_on_pause">0</property>
  <property name="mlt_service">avformat-novalidate</property>
  <property name="meta.media.nb_streams">1</property>
  <property name="meta.media.0.stream.type">video</property>
  <property name="meta.media.0.stream.frame_rate">60</property>
  <property name="meta.media.0.stream.sample_aspect_ratio">0</property>
  <property name="meta.media.0.codec.width">1920</property>
  <property name="meta.media.0.codec.height">1080</property>
  <property name="meta.media.0.codec.rotate">0</property>
  <property name="meta.media.0.codec.frame_rate">60</property>
  <property name="meta.media.0.codec.pix_fmt">yuv420p</property>
  <property name="meta.media.0.codec.sample_aspect_ratio">0</property>
  <property name="meta.media.0.codec.colorspace">709</property>
  <property name="meta.media.0.codec.name">h264</property>
  <property name="meta.media.0.codec.long_name">H.264 / AVC / MPEG-4 AVC / MPEG-4 part 10</property>
  <property name="meta.media.0.codec.bit_rate">167285</property>
  <property name="meta.attr.0.stream.handler_name.markup">VideoHandler</property>
  <property name="meta.attr.0.stream.vendor_id.markup">[0][0][0][0]</property>
  <property name="meta.attr.major_brand.markup">isom</property>
  <property name="meta.attr.minor_version.markup">512</property>
  <property name="meta.attr.compatible_brands.markup">isomiso2avc1mp41</property>
  <property name="meta.attr.encoder.markup">Lavf58.76.100</property>
  <property name="meta.attr.comment.markup">Rendered with Manim Community v0.9.0</property>
  <property name="seekable">1</property>
  <property name="meta.media.sample_aspect_num">1</property>
  <property name="meta.media.sample_aspect_den">1</property>
  <property name="aspect_ratio">1</property>
  <property name="kdenlive:clipname"/>
  <property name="meta.media.frame_rate_num">60</property>
  <property name="meta.media.frame_rate_den">1</property>
  <property name="meta.media.colorspace">709</property>
  <property name="meta.media.color_trc">2</property>
  <property name="meta.media.has_b_frames">2</property>
  <property name="meta.media.width">1920</property>
  <property name="meta.media.height">1080</property>
  <property name="meta.media.color_range">mpeg</property>
  <property name="meta.media.top_field_first">0</property>
  <property name="meta.media.progressive">1</property>
  <property name="kdenlive:folderid">11</property>
  <property name="kdenlive:id">2</property>
  <property name="kdenlive:file_size">271031</property>
  <property name="kdenlive:file_hash">e896236d1c6d7de4a5425789f08087d8</property>
 </producer>
 <producer id="producer2" in="00:00:00.000" out="00:00:06.483">
  <property name="length">390</property>
  <property name="eof">pause</property>
  <property name="resource">media/videos/scene/1080p60/ERGraph.mp4</property>
  <property name="audio_index">-1</property>
  <property name="video_index">0</property>
  <property name="mute_on_pause">0</property>
  <property name="mlt_service">avformat-novalidate</property>
  <property name="meta.media.nb_streams">1</property>
  <property name="meta.media.0.stream.type">video</property>
  <property name="meta.media.0.stream.frame_rate">60</property>
  <property name="meta.media.0.stream.sample_aspect_ratio">0</property>
  <property name="meta.media.0.codec.width">1920</property>
  <property name="meta.media.0.codec.height">1080</property>
  <property name="meta.media.0.codec.rotate">0</property>
  <property name="meta.media.0.codec.frame_rate">60</property>
  <property name="meta.media.0.codec.pix_fmt">yuv420p</property>
  <property name="meta.media.0.codec.sample_aspect_ratio">0</property>
  <property name="meta.media.0.codec.colorspace">709</property>
  <property name="meta.media.0.codec.name">h264</property>
  <property name="meta.media.0.codec.long_name">H.264 / AVC / MPEG-4 AVC / MPEG-4 part 10</property>
  <property name="meta.media.0.codec.bit_rate">233556</property>
  <property name="meta.attr.0.stream.handler_name.markup">VideoHandler</property>
  <property name="meta.attr.0.stream.vendor_id.markup">[0][0][0][0]</property>
  <property name="meta.attr.major_brand.markup">isom</property>
  <property name="meta.attr.minor_version.markup">512</property>
  <property name="meta.attr.compatible_brands.markup">isomiso2avc1mp41</property>
  <property name="meta.attr.encoder.markup">Lavf58.76.100</property>
  <property name="meta.attr.comment.markup">Rendered with Manim Community v0.9.0</property>
  <property name="seekable">1</property>
  <property name="meta.media.sample_aspect_num">1</property>
  <property name="meta.media.sample_aspect_den">1</property>
  <property name="aspect_ratio">1</property>
  <property name="kdenlive:clipname"/>
  <property name="kdenlive:file_size">195333</property>
  <property name="kdenlive:folderid">11</property>
  <property name="meta.media.frame_rate_num">60</property>
  <property name="meta.media.frame_rate_den">1</property>
  <property name="meta.media.colorspace">709</property>
  <property name="meta.media.color_trc">2</property>
  <property name="meta.media.has_b_frames">2</property>
  <property name="meta.media.width">1920</property>
  <property name="meta.media.height">1080</property>
  <property name="meta.media.color_range">mpeg</property>
  <property name="kdenlive:id">4</property>
  <property name="kdenlive:file_hash">1256151ee317ead71b90c5043cb4d3e2</property>
  <property name="meta.media.top_field_first">0</property>
  <property name="meta.media.progressive">1</property>
 </producer>
 <producer id="producer44" in="00:00:00.000" out="00:00:10.483">
  <property name="length">630</property>
  <property name="eof">pause</property>
  <property name="resource">media/videos/scene/1080p60/Generators.mp4</property>
  <property name="audio_index">-1</property>
  <property name="video_index">0</property>
  <property name="mute_on_pause">0</property>
  <property name="mlt_service">avformat-novalidate</property>
  <property name="seekable">1</property>
  <property name="aspect_ratio">1</property>
  <property name="kdenlive:clipname"/>
  <property name="kdenlive:folderid">11</property>
  <property name="kdenlive:id">5</property>
  <property name="kdenlive:file_size">288491</property>
  <property name="kdenlive:file_hash">3f094c0e119f4d49767baa4fad378309</property>
  <property name="meta.media.nb_streams">1</property>
  <property name="meta.media.0.stream.type">video</property>
  <property name="meta.media.0.stream.frame_rate">60</property>
  <property name="meta.media.0.stream.sample_aspect_ratio">0</property>
  <property name="meta.media.0.codec.width">1920</property>
  <property name="meta.media.0.codec.height">1080</property>
  <property name="meta.media.0.codec.rotate">0</property>
  <property name="meta.media.0.codec.frame_rate">60</property>
  <property name="meta.media.0.codec.pix_fmt">yuv420p</property>
  <property name="meta.media.0.codec.sample_aspect_ratio">0</property>
  <property name="meta.media.0.codec.colorspace">709</property>
  <property name="meta.media.0.codec.name">h264</property>
  <property name="meta.media.0.codec.long_name">H.264 / AVC / MPEG-4 AVC / MPEG-4 part 10</property>
  <property name="meta.media.0.codec.bit_rate">213393</property>
  <property name="meta.attr.0.stream.handler_name.markup">VideoHandler</property>
  <property name="meta.attr.0.stream.vendor_id.markup">[0][0][0][0]</property>
  <property name="meta.attr.major_brand.markup">isom</property>
  <property name="meta.attr.minor_version.markup">512</property>
  <property name="meta.attr.compatible_brands.markup">isomiso2avc1mp41</property>
  <property name="meta.attr.encoder.markup">Lavf58.76.100</property>
  <property name="meta.attr.comment.markup">Rendered with Manim Community v0.9.0</property>
  <property name="meta.media.sample_aspect_num">1</property>
  <property name="meta.media.sample_aspect_den">1</property>
  <property name="meta.media.frame_rate_num">60</property>
  <property name="meta.media.frame_rate_den">1</property>
  <property name="meta.media.colorspace">709</property>
  <property name="meta.media.color_trc">2</property>
  <property name="meta.media.has_b_frames">2</property>
  <property name="meta.media.width">1920</property>
  <property name="meta.media.height">1080</property>
  <property name="meta.media.color_range">mpeg</property>
  <property name="meta.media.top_field_first">0</property>
  <property name="meta.media.progressive">1</property>
 </producer>
 <producer id="producer4" in="00:00:00.000" out="00:00:19.483">
  <property name="length">1170</property>
  <property name="eof">pause</property>
  <property name="resource">media/videos/scene/1080p60/GroupDef.mp4</property>
  <property name="audio_index">-1</property>
  <property name="video_index">0</property>
  <property name="mute_on_pause">0</property>
  <property name="mlt_service">avformat-novalidate</property>
  <property name="meta.media.nb_streams">1</property>
  <property name="meta.media.0.stream.type">video</property>
  <property name="meta.media.0.stream.frame_rate">60</property>
  <property name="meta.media.0.stream.sample_aspect_ratio">0</property>
  <property name="meta.media.0.codec.width">1920</property>
  <property name="meta.media.0.codec.height">1080</property>
  <property name="meta.media.0.codec.rotate">0</property>
  <property name="meta.media.0.codec.frame_rate">60</property>
  <property name="meta.media.0.codec.pix_fmt">yuv420p</property>
  <property name="meta.media.0.codec.sample_aspect_ratio">0</property>
  <property name="meta.media.0.codec.colorspace">709</property>
  <property name="meta.media.0.codec.name">h264</property>
  <property name="meta.media.0.codec.long_name">H.264 / AVC / MPEG-4 AVC / MPEG-4 part 10</property>
  <property name="meta.media.0.codec.bit_rate">339839</property>
  <property name="meta.attr.0.stream.handler_name.markup">VideoHandler</property>
  <property name="meta.attr.0.stream.vendor_id.markup">[0][0][0][0]</property>
  <property name="meta.attr.major_brand.markup">isom</property>
  <property name="meta.attr.minor_version.markup">512</property>
  <property name="meta.attr.compatible_brands.markup">isomiso2avc1mp41</property>
  <property name="meta.attr.encoder.markup">Lavf58.76.100</property>
  <property name="meta.attr.comment.markup">Rendered with Manim Community v0.9.0</property>
  <property name="seekable">1</property>
  <property name="meta.media.sample_aspect_num">1</property>
  <property name="meta.media.sample_aspect_den">1</property>
  <property name="aspect_ratio">1</property>
  <property name="kdenlive:clipname"/>
  <property name="kdenlive:folderid">11</property>
  <property name="meta.media.frame_rate_num">60</property>
  <property name="meta.media.frame_rate_den">1</property>
  <property name="meta.media.colorspace">709</property>
  <property name="meta.media.color_trc">2</property>
  <property name="meta.media.has_b_frames">2</property>
  <property name="meta.media.width">1920</property>
  <property name="meta.media.height">1080</property>
  <property name="meta.media.color_range">mpeg</property>
  <property name="kdenlive:file_size">843203</property>
  <property name="kdenlive:id">6</property>
  <property name="meta.media.top_field_first">0</property>
  <property name="meta.media.progressive">1</property>
  <property name="kdenlive:file_hash">c72b591d3a3de36629006aa84d372917</property>
 </producer>
 <producer id="producer5" in="00:00:00.000" out="00:00:25.483">
  <property name="length">1530</property>
  <property name="eof">pause</property>
  <property name="resource">media/videos/scene/1080p60/IntroScene.mp4</property>
  <property name="audio_index">-1</property>
  <property name="video_index">0</property>
  <property name="mute_on_pause">0</property>
  <property name="mlt_service">avformat-novalidate</property>
  <property name="seekable">1</property>
  <property name="aspect_ratio">1</property>
  <property name="kdenlive:clipname"/>
  <property name="kdenlive:folderid">11</property>
  <property name="kdenlive:file_size">593612</property>
  <property name="kdenlive:id">7</property>
  <property name="kdenlive:file_hash">3c5aa2dd0f57d30111dfc2a44d4dad57</property>
  <property name="meta.media.nb_streams">1</property>
  <property name="meta.media.0.stream.type">video</property>
  <property name="meta.media.0.stream.frame_rate">60</property>
  <property name="meta.media.0.stream.sample_aspect_ratio">0</property>
  <property name="meta.media.0.codec.width">1920</property>
  <property name="meta.media.0.codec.height">1080</property>
  <property name="meta.media.0.codec.rotate">0</property>
  <property name="meta.media.0.codec.frame_rate">60</property>
  <property name="meta.media.0.codec.pix_fmt">yuv420p</property>
  <property name="meta.media.0.codec.sample_aspect_ratio">0</property>
  <property name="meta.media.0.codec.colorspace">709</property>
  <property name="meta.media.0.codec.name">h264</property>
  <property name="meta.media.0.codec.long_name">H.264 / AVC / MPEG-4 AVC / MPEG-4 part 10</property>
  <property name="meta.media.0.codec.bit_rate">180222</property>
  <property name="meta.attr.0.stream.handler_name.markup">VideoHandler</property>
  <property name="meta.attr.0.stream.vendor_id.markup">[0][0][0][0]</property>
  <property name="meta.attr.major_brand.markup">isom</property>
  <property name="meta.attr.minor_version.markup">512</property>
  <property name="meta.attr.compatible_brands.markup">isomiso2avc1mp41</property>
  <property name="meta.attr.encoder.markup">Lavf58.76.100</property>
  <property name="meta.attr.comment.markup">Rendered with Manim Community v0.9.0</property>
  <property name="meta.media.sample_aspect_num">1</property>
  <property name="meta.media.sample_aspect_den">1</property>
  <property name="meta.media.frame_rate_num">60</property>
  <property name="meta.media.frame_rate_den">1</property>
  <property name="meta.media.colorspace">709</property>
  <property name="meta.media.color_trc">2</property>
  <property name="meta.media.has_b_frames">2</property>
  <property name="meta.media.width">1920</property>
  <property name="meta.media.height">1080</property>
  <property name="meta.media.color_range">mpeg</property>
  <property name="meta.media.top_field_first">0</property>
  <property name="meta.media.progressive">1</property>
 </producer>
 <producer id="producer56" in="00:00:00.000" out="00:00:28.983">
  <property name="length">1740</property>
  <property name="eof">pause</property>
  <property name="resource">media/videos/scene/1080p60/LargeDensities.mp4</property>
  <property name="audio_index">-1</property>
  <property name="video_index">0</property>
  <property name="mute_on_pause">0</property>
  <property name="mlt_service">avformat-novalidate</property>
  <property name="seekable">1</property>
  <property name="aspect_ratio">1</property>
  <property name="kdenlive:clipname"/>
  <property name="kdenlive:folderid">11</property>
  <property name="kdenlive:id">8</property>
  <property name="kdenlive:file_size">753633</property>
  <property name="kdenlive:file_hash">02444e7f33cc7e56071936fb51002399</property>
  <property name="meta.media.nb_streams">1</property>
  <property name="meta.media.0.stream.type">video</property>
  <property name="meta.media.0.stream.frame_rate">60</property>
  <property name="meta.media.0.stream.sample_aspect_ratio">0</property>
  <property name="meta.media.0.codec.width">1920</property>
  <property name="meta.media.0.codec.height">1080</property>
  <property name="meta.media.0.codec.rotate">0</property>
  <property name="meta.media.0.codec.frame_rate">60</property>
  <property name="meta.media.0.codec.pix_fmt">yuv420p</property>
  <property name="meta.media.0.codec.sample_aspect_ratio">0</property>
  <property name="meta.media.0.codec.colorspace">709</property>
  <property name="meta.media.0.codec.name">h264</property>
  <property name="meta.media.0.codec.long_name">H.264 / AVC / MPEG-4 AVC / MPEG-4 part 10</property>
  <property name="meta.media.0.codec.bit_rate">201958</property>
  <property name="meta.attr.0.stream.handler_name.markup">VideoHandler</property>
  <property name="meta.attr.0.stream.vendor_id.markup">[0][0][0][0]</property>
  <property name="meta.attr.major_brand.markup">isom</property>
  <property name="meta.attr.minor_version.markup">512</property>
  <property name="meta.attr.compatible_brands.markup">isomiso2avc1mp41</property>
  <property name="meta.attr.encoder.markup">Lavf58.76.100</property>
  <property name="meta.attr.comment.markup">Rendered with Manim Community v0.9.0</property>
  <property name="meta.media.sample_aspect_num">1</property>
  <property name="meta.media.sample_aspect_den">1</property>
  <property name="meta.media.frame_rate_num">60</property>
  <property name="meta.media.frame_rate_den">1</property>
  <property name="meta.media.colorspace">709</property>
  <property name="meta.media.color_trc">2</property>
  <property name="meta.media.has_b_frames">2</property>
  <property name="meta.media.width">1920</property>
  <property name="meta.media.height">1080</property>
  <property name="meta.media.color_range">mpeg</property>
 </producer>
 <producer id="producer43" in="00:00:00.000" out="00:00:35.983">
  <property name="length">2160</property>
  <property name="eof">pause</property>
  <property name="resource">media/videos/scene/1080p60/OmegaDef.mp4</property>
  <property name="audio_index">-1</property>
  <property name="video_index">0</property>
  <property name="mute_on_pause">0</property>
  <property name="mlt_service">avformat-novalidate</property>
  <property name="seekable">1</property>
  <property name="aspect_ratio">1</property>
  <property name="kdenlive:clipname"/>
  <property name="kdenlive:folderid">11</property>
  <property name="kdenlive:id">9</property>
  <property name="kdenlive:file_size">1320818</property>
  <property name="kdenlive:file_hash">016a73fed3648d4b287bd62b197fd3f5</property>
  <property name="meta.media.nb_streams">1</property>
  <property name="meta.media.0.stream.type">video</property>
  <property name="meta.media.0.stream.frame_rate">60</property>
  <property name="meta.media.0.stream.sample_aspect_ratio">0</property>
  <property name="meta.media.0.codec.width">1920</property>
  <property name="meta.media.0.codec.height">1080</property>
  <property name="meta.media.0.codec.rotate">0</property>
  <property name="meta.media.0.codec.frame_rate">60</property>
  <property name="meta.media.0.codec.pix_fmt">yuv420p</property>
  <property name="meta.media.0.codec.sample_aspect_ratio">0</property>
  <property name="meta.media.0.codec.colorspace">709</property>
  <property name="meta.media.0.codec.name">h264</property>
  <property name="meta.media.0.codec.long_name">H.264 / AVC / MPEG-4 AVC / MPEG-4 part 10</property>
  <property name="meta.media.0.codec.bit_rate">287723</property>
  <property name="meta.attr.0.stream.handler_name.markup">VideoHandler</property>
  <property name="meta.attr.0.stream.vendor_id.markup">[0][0][0][0]</property>
  <property name="meta.attr.major_brand.markup">isom</property>
  <property name="meta.attr.minor_version.markup">512</property>
  <property name="meta.attr.compatible_brands.markup">isomiso2avc1mp41</property>
  <property name="meta.attr.encoder.markup">Lavf58.76.100</property>
  <property name="meta.attr.comment.markup">Rendered with Manim Community v0.9.0</property>
  <property name="meta.media.sample_aspect_num">1</property>
  <property name="meta.media.sample_aspect_den">1</property>
  <property name="meta.media.frame_rate_num">60</property>
  <property name="meta.media.frame_rate_den">1</property>
  <property name="meta.media.colorspace">709</property>
  <property name="meta.media.color_trc">2</property>
  <property name="meta.media.has_b_frames">2</property>
  <property name="meta.media.width">1920</property>
  <property name="meta.media.height">1080</property>
  <property name="meta.media.color_range">mpeg</property>
  <property name="meta.media.top_field_first">0</property>
  <property name="meta.media.progressive">1</property>
 </producer>
 <producer id="producer50" in="00:00:00.000" out="00:00:10.483">
  <property name="length">630</property>
  <property name="eof">pause</property>
  <property name="resource">media/videos/scene/1080p60/SmallDensities.mp4</property>
  <property name="audio_index">-1</property>
  <property name="video_index">0</property>
  <property name="mute_on_pause">0</property>
  <property name="mlt_service">avformat-novalidate</property>
  <property name="seekable">1</property>
  <property name="aspect_ratio">1</property>
  <property name="kdenlive:clipname"/>
  <property name="kdenlive:file_size">282205</property>
  <property name="kdenlive:folderid">11</property>
  <property name="kdenlive:id">10</property>
  <property name="kdenlive:file_hash">da83be673831f56edea16b31d17fde28</property>
  <property name="meta.media.nb_streams">1</property>
  <property name="meta.media.0.stream.type">video</property>
  <property name="meta.media.0.stream.frame_rate">60</property>
  <property name="meta.media.0.stream.sample_aspect_ratio">0</property>
  <property name="meta.media.0.codec.width">1920</property>
  <property name="meta.media.0.codec.height">1080</property>
  <property name="meta.media.0.codec.rotate">0</property>
  <property name="meta.media.0.codec.frame_rate">60</property>
  <property name="meta.media.0.codec.pix_fmt">yuv420p</property>
  <property name="meta.media.0.codec.sample_aspect_ratio">0</property>
  <property name="meta.media.0.codec.colorspace">709</property>
  <property name="meta.media.0.codec.name">h264</property>
  <property name="meta.media.0.codec.long_name">H.264 / AVC / MPEG-4 AVC / MPEG-4 part 10</property>
  <property name="meta.media.0.codec.bit_rate">208622</property>
  <property name="meta.attr.0.stream.handler_name.markup">VideoHandler</property>
  <property name="meta.attr.0.stream.vendor_id.markup">[0][0][0][0]</property>
  <property name="meta.attr.major_brand.markup">isom</property>
  <property name="meta.attr.minor_version.markup">512</property>
  <property name="meta.attr.compatible_brands.markup">isomiso2avc1mp41</property>
  <property name="meta.attr.encoder.markup">Lavf58.76.100</property>
  <property name="meta.attr.comment.markup">Rendered with Manim Community v0.9.0</property>
  <property name="meta.media.sample_aspect_num">1</property>
  <property name="meta.media.sample_aspect_den">1</property>
  <property name="meta.media.frame_rate_num">60</property>
  <property name="meta.media.frame_rate_den">1</property>
  <property name="meta.media.colorspace">709</property>
  <property name="meta.media.color_trc">2</property>
  <property name="meta.media.has_b_frames">2</property>
  <property name="meta.media.width">1920</property>
  <property name="meta.media.height">1080</property>
  <property name="meta.media.color_range">mpeg</property>
  <property name="meta.media.top_field_first">0</property>
  <property name="meta.media.progressive">1</property>
 </producer>
 <producer id="producer36" in="00:00:00.000" out="00:00:13.317">
  <property name="length">800</property>
  <property name="eof">pause</property>
  <property name="resource">clips/para01.flac</property>
  <property name="meta.media.nb_streams">1</property>
  <property name="meta.media.0.stream.type">audio</property>
  <property name="meta.media.0.codec.sample_fmt">s16</property>
  <property name="meta.media.0.codec.sample_rate">44100</property>
  <property name="meta.media.0.codec.channels">1</property>
  <property name="meta.media.0.codec.name">flac</property>
  <property name="meta.media.0.codec.long_name">FLAC (Free Lossless Audio Codec)</property>
  <property name="meta.media.0.codec.bit_rate">0</property>
  <property name="seekable">1</property>
  <property name="audio_index">0</property>
  <property name="video_index">-1</property>
  <property name="mute_on_pause">1</property>
  <property name="mlt_service">avformat</property>
  <property name="kdenlive:clipname"/>
  <property name="kdenlive:folderid">12</property>
  <property name="kdenlive:id">13</property>
  <property name="kdenlive:file_size">672493</property>
  <property name="kdenlive:file_hash">aa6491dfde770013e7954aee177e31fc</property>
  <property name="kdenlive:audio_max0">166</property>
 </producer>
 <producer id="producer35" in="00:00:00.000" out="00:00:23.783">
  <property name="length">1428</property>
  <property name="eof">pause</property>
  <property name="resource">clips/para02.flac</property>
  <property name="meta.media.nb_streams">1</property>
  <property name="meta.media.0.stream.type">audio</property>
  <property name="meta.media.0.codec.sample_fmt">s16</property>
  <property name="meta.media.0.codec.sample_rate">44100</property>
  <property name="meta.media.0.codec.channels">1</property>
  <property name="meta.media.0.codec.name">flac</property>
  <property name="meta.media.0.codec.long_name">FLAC (Free Lossless Audio Codec)</property>
  <property name="meta.media.0.codec.bit_rate">0</property>
  <property name="seekable">1</property>
  <property name="audio_index">0</property>
  <property name="video_index">-1</property>
  <property name="mute_on_pause">1</property>
  <property name="mlt_service">avformat</property>
  <property name="kdenlive:clipname"/>
  <property name="kdenlive:folderid">12</property>
  <property name="kdenlive:id">14</property>
  <property name="kdenlive:file_size">1161798</property>
  <property name="kdenlive:file_hash">68496152a51fda47dbf7cdc17f175031</property>
  <property name="kdenlive:audio_max0">164</property>
 </producer>
 <producer id="producer34" in="00:00:00.000" out="00:00:18.767">
  <property name="length">1127</property>
  <property name="eof">pause</property>
  <property name="resource">clips/para03.flac</property>
  <property name="meta.media.nb_streams">1</property>
  <property name="meta.media.0.stream.type">audio</property>
  <property name="meta.media.0.codec.sample_fmt">s16</property>
  <property name="meta.media.0.codec.sample_rate">44100</property>
  <property name="meta.media.0.codec.channels">1</property>
  <property name="meta.media.0.codec.name">flac</property>
  <property name="meta.media.0.codec.long_name">FLAC (Free Lossless Audio Codec)</property>
  <property name="meta.media.0.codec.bit_rate">0</property>
  <property name="seekable">1</property>
  <property name="audio_index">0</property>
  <property name="video_index">-1</property>
  <property name="mute_on_pause">1</property>
  <property name="mlt_service">avformat</property>
  <property name="kdenlive:clipname"/>
  <property name="kdenlive:folderid">12</property>
  <property name="kdenlive:id">15</property>
  <property name="kdenlive:file_size">928388</property>
  <property name="kdenlive:file_hash">faa16c945f03722ee850906094fd0a6f</property>
  <property name="kdenlive:audio_max0">167</property>
 </producer>
 <producer id="producer33" in="00:00:00.000" out="00:00:15.233">
  <property name="length">915</property>
  <property name="eof">pause</property>
  <property name="resource">clips/para04.flac</property>
  <property name="meta.media.nb_streams">1</property>
  <property name="meta.media.0.stream.type">audio</property>
  <property name="meta.media.0.codec.sample_fmt">s16</property>
  <property name="meta.media.0.codec.sample_rate">44100</property>
  <property name="meta.media.0.codec.channels">1</property>
  <property name="meta.media.0.codec.name">flac</property>
  <property name="meta.media.0.codec.long_name">FLAC (Free Lossless Audio Codec)</property>
  <property name="meta.media.0.codec.bit_rate">0</property>
  <property name="seekable">1</property>
  <property name="audio_index">0</property>
  <property name="video_index">-1</property>
  <property name="mute_on_pause">1</property>
  <property name="mlt_service">avformat</property>
  <property name="kdenlive:clipname"/>
  <property name="kdenlive:folderid">12</property>
  <property name="kdenlive:id">16</property>
  <property name="kdenlive:file_size">774607</property>
  <property name="kdenlive:file_hash">47a39b775a583ebbd6da5f6e3b1583b9</property>
  <property name="kdenlive:audio_max0">164</property>
 </producer>
 <producer id="producer32" in="00:00:00.000" out="00:00:09.767">
  <property name="length">587</property>
  <property name="eof">pause</property>
  <property name="resource">clips/para05.flac</property>
  <property name="meta.media.nb_streams">1</property>
  <property name="meta.media.0.stream.type">audio</property>
  <property name="meta.media.0.codec.sample_fmt">s16</property>
  <property name="meta.media.0.codec.sample_rate">44100</property>
  <property name="meta.media.0.codec.channels">1</property>
  <property name="meta.media.0.codec.name">flac</property>
  <property name="meta.media.0.codec.long_name">FLAC (Free Lossless Audio Codec)</property>
  <property name="meta.media.0.codec.bit_rate">0</property>
  <property name="seekable">1</property>
  <property name="audio_index">0</property>
  <property name="video_index">-1</property>
  <property name="mute_on_pause">1</property>
  <property name="mlt_service">avformat</property>
  <property name="kdenlive:clipname"/>
  <property name="kdenlive:folderid">12</property>
  <property name="kdenlive:id">17</property>
  <property name="kdenlive:file_size">480491</property>
  <property name="kdenlive:file_hash">de0f9cba66de0ceefdda2d277787784c</property>
  <property name="kdenlive:audio_max0">162</property>
 </producer>
 <producer id="producer31" in="00:00:00.000" out="00:00:12.250">
  <property name="length">736</property>
  <property name="eof">pause</property>
  <property name="resource">clips/para06.flac</property>
  <property name="meta.media.nb_streams">1</property>
  <property name="meta.media.0.stream.type">audio</property>
  <property name="meta.media.0.codec.sample_fmt">s16</property>
  <property name="meta.media.0.codec.sample_rate">44100</property>
  <property name="meta.media.0.codec.channels">1</property>
  <property name="meta.media.0.codec.name">flac</property>
  <property name="meta.media.0.codec.long_name">FLAC (Free Lossless Audio Codec)</property>
  <property name="meta.media.0.codec.bit_rate">0</property>
  <property name="seekable">1</property>
  <property name="audio_index">0</property>
  <property name="video_index">-1</property>
  <property name="mute_on_pause">1</property>
  <property name="mlt_service">avformat</property>
  <property name="kdenlive:clipname"/>
  <property name="kdenlive:folderid">12</property>
  <property name="kdenlive:id">18</property>
  <property name="kdenlive:file_size">603545</property>
  <property name="kdenlive:file_hash">f17efba4c9359808328c62d5ba93c602</property>
  <property name="kdenlive:audio_max0">169</property>
 </producer>
 <producer id="producer30" in="00:00:00.000" out="00:00:05.850">
  <property name="length">352</property>
  <property name="eof">pause</property>
  <property name="resource">clips/para07.flac</property>
  <property name="meta.media.nb_streams">1</property>
  <property name="meta.media.0.stream.type">audio</property>
  <property name="meta.media.0.codec.sample_fmt">s16</property>
  <property name="meta.media.0.codec.sample_rate">44100</property>
  <property name="meta.media.0.codec.channels">1</property>
  <property name="meta.media.0.codec.name">flac</property>
  <property name="meta.media.0.codec.long_name">FLAC (Free Lossless Audio Codec)</property>
  <property name="meta.media.0.codec.bit_rate">0</property>
  <property name="seekable">1</property>
  <property name="audio_index">0</property>
  <property name="video_index">-1</property>
  <property name="mute_on_pause">1</property>
  <property name="mlt_service">avformat</property>
  <property name="kdenlive:clipname"/>
  <property name="kdenlive:folderid">12</property>
  <property name="kdenlive:id">19</property>
  <property name="kdenlive:file_size">283861</property>
  <property name="kdenlive:file_hash">3b1735c0becb0611869e3de98bd9604a</property>
  <property name="kdenlive:audio_max0">162</property>
 </producer>
 <producer id="producer29" in="00:00:00.000" out="00:00:19.517">
  <property name="length">1172</property>
  <property name="eof">pause</property>
  <property name="resource">clips/para08.flac</property>
  <property name="meta.media.nb_streams">1</property>
  <property name="meta.media.0.stream.type">audio</property>
  <property name="meta.media.0.codec.sample_fmt">s16</property>
  <property name="meta.media.0.codec.sample_rate">44100</property>
  <property name="meta.media.0.codec.channels">1</property>
  <property name="meta.media.0.codec.name">flac</property>
  <property name="meta.media.0.codec.long_name">FLAC (Free Lossless Audio Codec)</property>
  <property name="meta.media.0.codec.bit_rate">0</property>
  <property name="seekable">1</property>
  <property name="audio_index">0</property>
  <property name="video_index">-1</property>
  <property name="mute_on_pause">1</property>
  <property name="mlt_service">avformat</property>
  <property name="kdenlive:clipname"/>
  <property name="kdenlive:folderid">12</property>
  <property name="kdenlive:id">20</property>
  <property name="kdenlive:file_size">945323</property>
  <property name="kdenlive:file_hash">3aa5318bdf161594b832b13ead5e1aea</property>
  <property name="kdenlive:audio_max0">165</property>
 </producer>
 <producer id="producer28" in="00:00:00.000" out="00:00:09.900">
  <property name="length">595</property>
  <property name="eof">pause</property>
  <property name="resource">clips/para09.flac</property>
  <property name="meta.media.nb_streams">1</property>
  <property name="meta.media.0.stream.type">audio</property>
  <property name="meta.media.0.codec.sample_fmt">s16</property>
  <property name="meta.media.0.codec.sample_rate">44100</property>
  <property name="meta.media.0.codec.channels">1</property>
  <property name="meta.media.0.codec.name">flac</property>
  <property name="meta.media.0.codec.long_name">FLAC (Free Lossless Audio Codec)</property>
  <property name="meta.media.0.codec.bit_rate">0</property>
  <property name="seekable">1</property>
  <property name="audio_index">0</property>
  <property name="video_index">-1</property>
  <property name="mute_on_pause">1</property>
  <property name="mlt_service">avformat</property>
  <property name="kdenlive:clipname"/>
  <property name="kdenlive:folderid">12</property>
  <property name="kdenlive:id">21</property>
  <property name="kdenlive:file_size">477153</property>
  <property name="kdenlive:file_hash">6de6cafa263c2ff8d05b2390c968ff59</property>
  <property name="kdenlive:audio_max0">162</property>
 </producer>
 <producer id="producer27" in="00:00:00.000" out="00:00:03.500">
  <property name="length">211</property>
  <property name="eof">pause</property>
  <property name="resource">clips/para10.flac</property>
  <property name="meta.media.nb_streams">1</property>
  <property name="meta.media.0.stream.type">audio</property>
  <property name="meta.media.0.codec.sample_fmt">s16</property>
  <property name="meta.media.0.codec.sample_rate">44100</property>
  <property name="meta.media.0.codec.channels">1</property>
  <property name="meta.media.0.codec.name">flac</property>
  <property name="meta.media.0.codec.long_name">FLAC (Free Lossless Audio Codec)</property>
  <property name="meta.media.0.codec.bit_rate">0</property>
  <property name="seekable">1</property>
  <property name="audio_index">0</property>
  <property name="video_index">-1</property>
  <property name="mute_on_pause">1</property>
  <property name="mlt_service">avformat</property>
  <property name="kdenlive:clipname"/>
  <property name="kdenlive:folderid">12</property>
  <property name="kdenlive:id">22</property>
  <property name="kdenlive:file_size">173266</property>
  <property name="kdenlive:file_hash">7471f01749daf11d7893848ac0103769</property>
  <property name="kdenlive:audio_max0">160</property>
 </producer>
 <producer id="producer26" in="00:00:00.000" out="00:00:23.033">
  <property name="length">1383</property>
  <property name="eof">pause</property>
  <property name="resource">clips/para11.flac</property>
  <property name="meta.media.nb_streams">1</property>
  <property name="meta.media.0.stream.type">audio</property>
  <property name="meta.media.0.codec.sample_fmt">s16</property>
  <property name="meta.media.0.codec.sample_rate">44100</property>
  <property name="meta.media.0.codec.channels">1</property>
  <property name="meta.media.0.codec.name">flac</property>
  <property name="meta.media.0.codec.long_name">FLAC (Free Lossless Audio Codec)</property>
  <property name="meta.media.0.codec.bit_rate">0</property>
  <property name="seekable">1</property>
  <property name="audio_index">0</property>
  <property name="video_index">-1</property>
  <property name="mute_on_pause">1</property>
  <property name="mlt_service">avformat</property>
  <property name="kdenlive:clipname"/>
  <property name="kdenlive:folderid">12</property>
  <property name="kdenlive:id">23</property>
  <property name="kdenlive:file_size">1133021</property>
  <property name="kdenlive:file_hash">fe4099ef5b51e40103a9aad324dd44d2</property>
  <property name="kdenlive:audio_max0">163</property>
 </producer>
 <producer id="producer25" in="00:00:00.000" out="00:00:12.550">
  <property name="length">754</property>
  <property name="eof">pause</property>
  <property name="resource">clips/para12.flac</property>
  <property name="meta.media.nb_streams">1</property>
  <property name="meta.media.0.stream.type">audio</property>
  <property name="meta.media.0.codec.sample_fmt">s16</property>
  <property name="meta.media.0.codec.sample_rate">44100</property>
  <property name="meta.media.0.codec.channels">1</property>
  <property name="meta.media.0.codec.name">flac</property>
  <property name="meta.media.0.codec.long_name">FLAC (Free Lossless Audio Codec)</property>
  <property name="meta.media.0.codec.bit_rate">0</property>
  <property name="seekable">1</property>
  <property name="audio_index">0</property>
  <property name="video_index">-1</property>
  <property name="mute_on_pause">1</property>
  <property name="mlt_service">avformat</property>
  <property name="kdenlive:clipname"/>
  <property name="kdenlive:folderid">12</property>
  <property name="kdenlive:id">24</property>
  <property name="kdenlive:file_size">631374</property>
  <property name="kdenlive:file_hash">4dcf2848563312207f9298f57d0a887a</property>
  <property name="kdenlive:audio_max0">168</property>
 </producer>
 <producer id="producer24" in="00:00:00.000" out="00:00:05.117">
  <property name="length">308</property>
  <property name="eof">pause</property>
  <property name="resource">clips/para13.flac</property>
  <property name="meta.media.nb_streams">1</property>
  <property name="meta.media.0.stream.type">audio</property>
  <property name="meta.media.0.codec.sample_fmt">s16</property>
  <property name="meta.media.0.codec.sample_rate">44100</property>
  <property name="meta.media.0.codec.channels">1</property>
  <property name="meta.media.0.codec.name">flac</property>
  <property name="meta.media.0.codec.long_name">FLAC (Free Lossless Audio Codec)</property>
  <property name="meta.media.0.codec.bit_rate">0</property>
  <property name="seekable">1</property>
  <property name="audio_index">0</property>
  <property name="video_index">-1</property>
  <property name="mute_on_pause">1</property>
  <property name="mlt_service">avformat</property>
  <property name="kdenlive:clipname"/>
  <property name="kdenlive:folderid">12</property>
  <property name="kdenlive:id">25</property>
  <property name="kdenlive:file_size">253074</property>
  <property name="kdenlive:file_hash">df1899e67278f45153ef4510d91e680b</property>
  <property name="kdenlive:audio_max0">165</property>
 </producer>
 <producer id="producer23" in="00:00:00.000" out="00:00:08.617">
  <property name="length">518</property>
  <property name="eof">pause</property>
  <property name="resource">clips/para14.flac</property>
  <property name="meta.media.nb_streams">1</property>
  <property name="meta.media.0.stream.type">audio</property>
  <property name="meta.media.0.codec.sample_fmt">s16</property>
  <property name="meta.media.0.codec.sample_rate">44100</property>
  <property name="meta.media.0.codec.channels">1</property>
  <property name="meta.media.0.codec.name">flac</property>
  <property name="meta.media.0.codec.long_name">FLAC (Free Lossless Audio Codec)</property>
  <property name="meta.media.0.codec.bit_rate">0</property>
  <property name="seekable">1</property>
  <property name="audio_index">0</property>
  <property name="video_index">-1</property>
  <property name="mute_on_pause">1</property>
  <property name="mlt_service">avformat</property>
  <property name="kdenlive:clipname"/>
  <property name="kdenlive:folderid">12</property>
  <property name="kdenlive:id">26</property>
  <property name="kdenlive:file_size">416587</property>
  <property name="kdenlive:file_hash">65c04715613b3fa60a7c2ea5cf36e4fd</property>
  <property name="kdenlive:audio_max0">168</property>
 </producer>
 <producer id="producer22" in="00:00:00.000" out="00:00:10.483">
  <property name="length">630</property>
  <property name="eof">pause</property>
  <property name="resource">clips/para15.flac</property>
  <property name="meta.media.nb_streams">1</property>
  <property name="meta.media.0.stream.type">audio</property>
  <property name="meta.media.0.codec.sample_fmt">s16</property>
  <property name="meta.media.0.codec.sample_rate">44100</property>
  <property name="meta.media.0.codec.channels">1</property>
  <property name="meta.media.0.codec.name">flac</property>
  <property name="meta.media.0.codec.long_name">FLAC (Free Lossless Audio Codec)</property>
  <property name="meta.media.0.codec.bit_rate">0</property>
  <property name="seekable">1</property>
  <property name="audio_index">0</property>
  <property name="video_index">-1</property>
  <property name="mute_on_pause">1</property>
  <property name="mlt_service">avformat</property>
  <property name="kdenlive:clipname"/>
  <property name="kdenlive:folderid">12</property>
  <property name="kdenlive:id">27</property>
  <property name="kdenlive:file_size">510033</property>
  <property name="kdenlive:file_hash">275490b492ff7bda3d808e1610794f2c</property>
  <property name="kdenlive:audio_max0">162</property>
 </producer>
 <producer id="producer21" in="00:00:00.000" out="00:00:07.967">
  <property name="length">479</property>
  <property name="eof">pause</property>
  <property name="resource">clips/para16.flac</property>
  <property name="meta.media.nb_streams">1</property>
  <property name="meta.media.0.stream.type">audio</property>
  <property name="meta.media.0.codec.sample_fmt">s16</property>
  <property name="meta.media.0.codec.sample_rate">44100</property>
  <property name="meta.media.0.codec.channels">1</property>
  <property name="meta.media.0.codec.name">flac</property>
  <property name="meta.media.0.codec.long_name">FLAC (Free Lossless Audio Codec)</property>
  <property name="meta.media.0.codec.bit_rate">0</property>
  <property name="seekable">1</property>
  <property name="audio_index">0</property>
  <property name="video_index">-1</property>
  <property name="mute_on_pause">1</property>
  <property name="mlt_service">avformat</property>
  <property name="kdenlive:clipname"/>
  <property name="kdenlive:folderid">12</property>
  <property name="kdenlive:id">28</property>
  <property name="kdenlive:file_size">396624</property>
  <property name="kdenlive:file_hash">650c2d67d3aacb8da85819381f7d7ae3</property>
  <property name="kdenlive:audio_max0">165</property>
 </producer>
 <producer id="producer20" in="00:00:00.000" out="00:00:14.000">
  <property name="length">841</property>
  <property name="eof">pause</property>
  <property name="resource">clips/para17.flac</property>
  <property name="meta.media.nb_streams">1</property>
  <property name="meta.media.0.stream.type">audio</property>
  <property name="meta.media.0.codec.sample_fmt">s16</property>
  <property name="meta.media.0.codec.sample_rate">44100</property>
  <property name="meta.media.0.codec.channels">1</property>
  <property name="meta.media.0.codec.name">flac</property>
  <property name="meta.media.0.codec.long_name">FLAC (Free Lossless Audio Codec)</property>
  <property name="meta.media.0.codec.bit_rate">0</property>
  <property name="seekable">1</property>
  <property name="audio_index">0</property>
  <property name="video_index">-1</property>
  <property name="mute_on_pause">1</property>
  <property name="mlt_service">avformat</property>
  <property name="kdenlive:clipname"/>
  <property name="kdenlive:folderid">12</property>
  <property name="kdenlive:id">29</property>
  <property name="kdenlive:file_size">686032</property>
  <property name="kdenlive:file_hash">3c230e98ab74fafd57b7bdacdc03b7d1</property>
  <property name="kdenlive:audio_max0">165</property>
 </producer>
 <producer id="producer19" in="00:00:00.000" out="00:00:09.550">
  <property name="length">574</property>
  <property name="eof">pause</property>
  <property name="resource">clips/para18.flac</property>
  <property name="meta.media.nb_streams">1</property>
  <property name="meta.media.0.stream.type">audio</property>
  <property name="meta.media.0.codec.sample_fmt">s16</property>
  <property name="meta.media.0.codec.sample_rate">44100</property>
  <property name="meta.media.0.codec.channels">1</property>
  <property name="meta.media.0.codec.name">flac</property>
  <property name="meta.media.0.codec.long_name">FLAC (Free Lossless Audio Codec)</property>
  <property name="meta.media.0.codec.bit_rate">0</property>
  <property name="seekable">1</property>
  <property name="audio_index">0</property>
  <property name="video_index">-1</property>
  <property name="mute_on_pause">1</property>
  <property name="mlt_service">avformat</property>
  <property name="kdenlive:clipname"/>
  <property name="kdenlive:folderid">12</property>
  <property name="kdenlive:id">30</property>
  <property name="kdenlive:file_size">460687</property>
  <property name="kdenlive:file_hash">747bcd2ebb44d7f83719a30f508c2114</property>
  <property name="kdenlive:audio_max0">168</property>
 </producer>
 <producer id="producer18" in="00:00:00.000" out="00:00:14.183">
  <property name="length">852</property>
  <property name="eof">pause</property>
  <property name="resource">clips/para19.flac</property>
  <property name="meta.media.nb_streams">1</property>
  <property name="meta.media.0.stream.type">audio</property>
  <property name="meta.media.0.codec.sample_fmt">s16</property>
  <property name="meta.media.0.codec.sample_rate">44100</property>
  <property name="meta.media.0.codec.channels">1</property>
  <property name="meta.media.0.codec.name">flac</property>
  <property name="meta.media.0.codec.long_name">FLAC (Free Lossless Audio Codec)</property>
  <property name="meta.media.0.codec.bit_rate">0</property>
  <property name="seekable">1</property>
  <property name="audio_index">0</property>
  <property name="video_index">-1</property>
  <property name="mute_on_pause">1</property>
  <property name="mlt_service">avformat</property>
  <property name="kdenlive:clipname"/>
  <property name="kdenlive:folderid">12</property>
  <property name="kdenlive:id">31</property>
  <property name="kdenlive:file_size">708199</property>
  <property name="kdenlive:file_hash">abb6d50ef28e4f0a7c597c9df3454b70</property>
  <property name="kdenlive:audio_max0">162</property>
 </producer>
 <producer id="producer17" in="00:00:00.000" out="00:00:04.017">
  <property name="length">242</property>
  <property name="eof">pause</property>
  <property name="resource">clips/para20.flac</property>
  <property name="meta.media.nb_streams">1</property>
  <property name="meta.media.0.stream.type">audio</property>
  <property name="meta.media.0.codec.sample_fmt">s16</property>
  <property name="meta.media.0.codec.sample_rate">44100</property>
  <property name="meta.media.0.codec.channels">1</property>
  <property name="meta.media.0.codec.name">flac</property>
  <property name="meta.media.0.codec.long_name">FLAC (Free Lossless Audio Codec)</property>
  <property name="meta.media.0.codec.bit_rate">0</property>
  <property name="seekable">1</property>
  <property name="audio_index">0</property>
  <property name="video_index">-1</property>
  <property name="mute_on_pause">1</property>
  <property name="mlt_service">avformat</property>
  <property name="kdenlive:clipname"/>
  <property name="kdenlive:folderid">12</property>
  <property name="kdenlive:id">32</property>
  <property name="kdenlive:file_size">204399</property>
  <property name="kdenlive:file_hash">231a1ae6ccc272ef95cd6f6289c4ccca</property>
  <property name="kdenlive:audio_max0">159</property>
 </producer>
 <producer id="producer16" in="00:00:00.000" out="00:00:03.783">
  <property name="length">228</property>
  <property name="eof">pause</property>
  <property name="resource">clips/para21.flac</property>
  <property name="meta.media.nb_streams">1</property>
  <property name="meta.media.0.stream.type">audio</property>
  <property name="meta.media.0.codec.sample_fmt">s16</property>
  <property name="meta.media.0.codec.sample_rate">44100</property>
  <property name="meta.media.0.codec.channels">1</property>
  <property name="meta.media.0.codec.name">flac</property>
  <property name="meta.media.0.codec.long_name">FLAC (Free Lossless Audio Codec)</property>
  <property name="meta.media.0.codec.bit_rate">0</property>
  <property name="seekable">1</property>
  <property name="audio_index">0</property>
  <property name="video_index">-1</property>
  <property name="mute_on_pause">1</property>
  <property name="mlt_service">avformat</property>
  <property name="kdenlive:clipname"/>
  <property name="kdenlive:folderid">12</property>
  <property name="kdenlive:id">33</property>
  <property name="kdenlive:file_size">189373</property>
  <property name="kdenlive:file_hash">3fe0c4a664c0a930ad0820f44b3f5e4e</property>
  <property name="kdenlive:audio_max0">179</property>
 </producer>
 <producer id="producer15" in="00:00:00.000" out="00:00:04.033">
  <property name="length">243</property>
  <property name="eof">pause</property>
  <property name="resource">clips/para22.flac</property>
  <property name="meta.media.nb_streams">1</property>
  <property name="meta.media.0.stream.type">audio</property>
  <property name="meta.media.0.codec.sample_fmt">s16</property>
  <property name="meta.media.0.codec.sample_rate">44100</property>
  <property name="meta.media.0.codec.channels">1</property>
  <property name="meta.media.0.codec.name">flac</property>
  <property name="meta.media.0.codec.long_name">FLAC (Free Lossless Audio Codec)</property>
  <property name="meta.media.0.codec.bit_rate">0</property>
  <property name="seekable">1</property>
  <property name="audio_index">0</property>
  <property name="video_index">-1</property>
  <property name="mute_on_pause">1</property>
  <property name="mlt_service">avformat</property>
  <property name="kdenlive:clipname"/>
  <property name="kdenlive:folderid">12</property>
  <property name="kdenlive:id">34</property>
  <property name="kdenlive:file_size">203854</property>
  <property name="kdenlive:file_hash">a3ad676712696e93bb4115dc95bdd834</property>
  <property name="kdenlive:audio_max0">157</property>
 </producer>
 <producer id="producer14" in="00:00:00.000" out="00:00:10.383">
  <property name="length">624</property>
  <property name="eof">pause</property>
  <property name="resource">clips/para23.flac</property>
  <property name="meta.media.nb_streams">1</property>
  <property name="meta.media.0.stream.type">audio</property>
  <property name="meta.media.0.codec.sample_fmt">s16</property>
  <property name="meta.media.0.codec.sample_rate">44100</property>
  <property name="meta.media.0.codec.channels">1</property>
  <property name="meta.media.0.codec.name">flac</property>
  <property name="meta.media.0.codec.long_name">FLAC (Free Lossless Audio Codec)</property>
  <property name="meta.media.0.codec.bit_rate">0</property>
  <property name="seekable">1</property>
  <property name="audio_index">0</property>
  <property name="video_index">-1</property>
  <property name="mute_on_pause">1</property>
  <property name="mlt_service">avformat</property>
  <property name="kdenlive:clipname"/>
  <property name="kdenlive:folderid">12</property>
  <property name="kdenlive:id">35</property>
  <property name="kdenlive:file_size">508719</property>
  <property name="kdenlive:file_hash">0fe29dc041cac1bfbb61c31a3a346aa2</property>
  <property name="kdenlive:audio_max0">166</property>
 </producer>
 <producer id="producer13" in="00:00:00.000" out="00:00:18.967">
  <property name="length">1139</property>
  <property name="eof">pause</property>
  <property name="resource">clips/para24.flac</property>
  <property name="meta.media.nb_streams">1</property>
  <property name="meta.media.0.stream.type">audio</property>
  <property name="meta.media.0.codec.sample_fmt">s16</property>
  <property name="meta.media.0.codec.sample_rate">44100</property>
  <property name="meta.media.0.codec.channels">1</property>
  <property name="meta.media.0.codec.name">flac</property>
  <property name="meta.media.0.codec.long_name">FLAC (Free Lossless Audio Codec)</property>
  <property name="meta.media.0.codec.bit_rate">0</property>
  <property name="seekable">1</property>
  <property name="audio_index">0</property>
  <property name="video_index">-1</property>
  <property name="mute_on_pause">1</property>
  <property name="mlt_service">avformat</property>
  <property name="kdenlive:clipname"/>
  <property name="kdenlive:folderid">12</property>
  <property name="kdenlive:id">36</property>
  <property name="kdenlive:file_size">931832</property>
  <property name="kdenlive:file_hash">38f77f2654708a7a6a217f3773d37c65</property>
  <property name="kdenlive:audio_max0">166</property>
 </producer>
 <producer id="producer12" in="00:00:00.000" out="00:00:04.717">
  <property name="length">284</property>
  <property name="eof">pause</property>
  <property name="resource">clips/para25.flac</property>
  <property name="meta.media.nb_streams">1</property>
  <property name="meta.media.0.stream.type">audio</property>
  <property name="meta.media.0.codec.sample_fmt">s16</property>
  <property name="meta.media.0.codec.sample_rate">44100</property>
  <property name="meta.media.0.codec.channels">1</property>
  <property name="meta.media.0.codec.name">flac</property>
  <property name="meta.media.0.codec.long_name">FLAC (Free Lossless Audio Codec)</property>
  <property name="meta.media.0.codec.bit_rate">0</property>
  <property name="seekable">1</property>
  <property name="audio_index">0</property>
  <property name="video_index">-1</property>
  <property name="mute_on_pause">1</property>
  <property name="mlt_service">avformat</property>
  <property name="kdenlive:clipname"/>
  <property name="kdenlive:folderid">12</property>
  <property name="kdenlive:id">37</property>
  <property name="kdenlive:file_size">242364</property>
  <property name="kdenlive:file_hash">dc50861f68c494e3f2ffa7035805b70e</property>
  <property name="kdenlive:audio_max0">163</property>
 </producer>
 <producer id="producer11" in="00:00:00.000" out="00:00:08.650">
  <property name="length">520</property>
  <property name="eof">pause</property>
  <property name="resource">clips/para26.flac</property>
  <property name="meta.media.nb_streams">1</property>
  <property name="meta.media.0.stream.type">audio</property>
  <property name="meta.media.0.codec.sample_fmt">s16</property>
  <property name="meta.media.0.codec.sample_rate">44100</property>
  <property name="meta.media.0.codec.channels">1</property>
  <property name="meta.media.0.codec.name">flac</property>
  <property name="meta.media.0.codec.long_name">FLAC (Free Lossless Audio Codec)</property>
  <property name="meta.media.0.codec.bit_rate">0</property>
  <property name="seekable">1</property>
  <property name="audio_index">0</property>
  <property name="video_index">-1</property>
  <property name="mute_on_pause">1</property>
  <property name="mlt_service">avformat</property>
  <property name="kdenlive:clipname"/>
  <property name="kdenlive:folderid">12</property>
  <property name="kdenlive:id">38</property>
  <property name="kdenlive:file_size">436422</property>
  <property name="kdenlive:file_hash">492ba18e32e486762d6c48a43d28086c</property>
  <property name="kdenlive:audio_max0">165</property>
 </producer>
 <producer id="producer10" in="00:00:00.000" out="00:00:05.450">
  <property name="length">328</property>
  <property name="eof">pause</property>
  <property name="resource">clips/para27.flac</property>
  <property name="meta.media.nb_streams">1</property>
  <property name="meta.media.0.stream.type">audio</property>
  <property name="meta.media.0.codec.sample_fmt">s16</property>
  <property name="meta.media.0.codec.sample_rate">44100</property>
  <property name="meta.media.0.codec.channels">1</property>
  <property name="meta.media.0.codec.name">flac</property>
  <property name="meta.media.0.codec.long_name">FLAC (Free Lossless Audio Codec)</property>
  <property name="meta.media.0.codec.bit_rate">0</property>
  <property name="seekable">1</property>
  <property name="audio_index">0</property>
  <property name="video_index">-1</property>
  <property name="mute_on_pause">1</property>
  <property name="mlt_service">avformat</property>
  <property name="kdenlive:clipname"/>
  <property name="kdenlive:folderid">12</property>
  <property name="kdenlive:id">39</property>
  <property name="kdenlive:file_size">279089</property>
  <property name="kdenlive:file_hash">56da697d219c97ffa7f8e1187f596a00</property>
  <property name="kdenlive:audio_max0">162</property>
 </producer>
 <producer id="producer9" in="00:00:00.000" out="00:00:06.767">
  <property name="length">407</property>
  <property name="eof">pause</property>
  <property name="resource">clips/para28.flac</property>
  <property name="meta.media.nb_streams">1</property>
  <property name="meta.media.0.stream.type">audio</property>
  <property name="meta.media.0.codec.sample_fmt">s16</property>
  <property name="meta.media.0.codec.sample_rate">44100</property>
  <property name="meta.media.0.codec.channels">1</property>
  <property name="meta.media.0.codec.name">flac</property>
  <property name="meta.media.0.codec.long_name">FLAC (Free Lossless Audio Codec)</property>
  <property name="meta.media.0.codec.bit_rate">0</property>
  <property name="seekable">1</property>
  <property name="audio_index">0</property>
  <property name="video_index">-1</property>
  <property name="mute_on_pause">1</property>
  <property name="mlt_service">avformat</property>
  <property name="kdenlive:clipname"/>
  <property name="kdenlive:folderid">12</property>
  <property name="kdenlive:id">40</property>
  <property name="kdenlive:file_size">346263</property>
  <property name="kdenlive:file_hash">8921cc51df1818cb693a96a15d765002</property>
  <property name="kdenlive:audio_max0">161</property>
 </producer>
 <producer id="producer37" in="00:00:00.000" out="00:00:05.183">
  <property name="length">312</property>
  <property name="eof">pause</property>
  <property name="resource">frames/01.png</property>
  <property name="ttl">25</property>
  <property name="aspect_ratio">1</property>
  <property name="progressive">1</property>
  <property name="seekable">1</property>
  <property name="meta.media.width">1920</property>
  <property name="meta.media.height">1080</property>
  <property name="mlt_service">qimage</property>
  <property name="kdenlive:clipname"/>
  <property name="kdenlive:duration">00:00:05.000</property>
  <property name="kdenlive:folderid">47</property>
  <property name="kdenlive:id">41</property>
  <property name="kdenlive:file_size">71926</property>
  <property name="kdenlive:file_hash">815da3275d9e209ca398e8273c35b92a</property>
 </producer>
 <producer id="producer38" in="00:00:00.000" out="00:00:08.733">
  <property name="length">525</property>
  <property name="eof">pause</property>
  <property name="resource">frames/02.png</property>
  <property name="ttl">25</property>
  <property name="aspect_ratio">1</property>
  <property name="progressive">1</property>
  <property name="seekable">1</property>
  <property name="meta.media.width">1920</property>
  <property name="meta.media.height">1080</property>
  <property name="mlt_service">qimage</property>
  <property name="kdenlive:clipname"/>
  <property name="kdenlive:duration">00:00:05.000</property>
  <property name="kdenlive:folderid">47</property>
  <property name="kdenlive:id">42</property>
  <property name="kdenlive:file_size">116293</property>
  <property name="kdenlive:file_hash">7a29baa8640560ac989c18f408938055</property>
 </producer>
 <producer id="producer39" in="00:00:00.000" out="00:00:17.450">
  <property name="length">1048</property>
  <property name="eof">pause</property>
  <property name="resource">frames/03.png</property>
  <property name="ttl">25</property>
  <property name="aspect_ratio">1</property>
  <property name="progressive">1</property>
  <property name="seekable">1</property>
  <property name="meta.media.width">1920</property>
  <property name="meta.media.height">1080</property>
  <property name="mlt_service">qimage</property>
  <property name="kdenlive:clipname"/>
  <property name="kdenlive:duration">00:00:05.000</property>
  <property name="kdenlive:folderid">47</property>
  <property name="kdenlive:id">43</property>
  <property name="kdenlive:file_size">137688</property>
  <property name="kdenlive:file_hash">1321e3ec9545ea1884e768d4fb30b743</property>
 </producer>
 <producer id="producer40" in="00:00:00.000" out="00:00:09.883">
  <property name="length">594</property>
  <property name="eof">pause</property>
  <property name="resource">frames/04.png</property>
  <property name="ttl">25</property>
  <property name="aspect_ratio">1</property>
  <property name="progressive">1</property>
  <property name="seekable">1</property>
  <property name="meta.media.width">1920</property>
  <property name="meta.media.height">1080</property>
  <property name="mlt_service">qimage</property>
  <property name="kdenlive:clipname"/>
  <property name="kdenlive:duration">00:00:05.000</property>
  <property name="kdenlive:folderid">47</property>
  <property name="kdenlive:id">44</property>
  <property name="kdenlive:file_size">223797</property>
  <property name="kdenlive:file_hash">c1450fcf615df4d6bdc1ba6a7b0ba312</property>
 </producer>
 <producer id="producer41" in="00:00:00.000" out="00:00:04.983">
  <property name="length">00:00:05.000</property>
  <property name="eof">pause</property>
  <property name="resource">frames/05.png</property>
  <property name="ttl">25</property>
  <property name="aspect_ratio">1</property>
  <property name="progressive">1</property>
  <property name="seekable">1</property>
  <property name="meta.media.width">1920</property>
  <property name="meta.media.height">1080</property>
  <property name="mlt_service">qimage</property>
  <property name="kdenlive:clipname"/>
  <property name="kdenlive:duration">00:00:05.000</property>
  <property name="kdenlive:folderid">47</property>
  <property name="kdenlive:id">45</property>
  <property name="kdenlive:file_size">307111</property>
  <property name="kdenlive:file_hash">f2098a703027a7cea10f2d02da2abb04</property>
 </producer>
 <producer id="producer3" in="00:00:00.000" out="00:00:04.983">
  <property name="length">00:00:05.000</property>
  <property name="eof">pause</property>
  <property name="resource">frames/06.png</property>
  <property name="ttl">25</property>
  <property name="aspect_ratio">1</property>
  <property name="progressive">1</property>
  <property name="seekable">1</property>
  <property name="meta.media.width">1920</property>
  <property name="meta.media.height">1080</property>
  <property name="mlt_service">qimage</property>
  <property name="kdenlive:clipname"/>
  <property name="kdenlive:duration">00:00:05.000</property>
  <property name="kdenlive:folderid">47</property>
  <property name="kdenlive:id">46</property>
  <property name="kdenlive:file_size">153622</property>
  <property name="kdenlive:file_hash">d2553955aebb3fca64e4f5ba9d57d827</property>
 </producer>
 <producer id="producer6" in="00:00:00.000" out="00:00:04.983">
  <property name="length">00:00:05.000</property>
  <property name="eof">pause</property>
  <property name="resource">frames/07.png</property>
  <property name="ttl">25</property>
  <property name="aspect_ratio">1</property>
  <property name="progressive">1</property>
  <property name="seekable">1</property>
  <property name="meta.media.width">1920</property>
  <property name="meta.media.height">1080</property>
  <property name="mlt_service">qimage</property>
  <property name="kdenlive:clipname"/>
  <property name="kdenlive:duration">00:00:05.000</property>
  <property name="kdenlive:folderid">47</property>
  <property name="kdenlive:id">48</property>
  <property name="kdenlive:file_size">148348</property>
  <property name="kdenlive:file_hash">baaf0f1b59008c053d8a5f10e92c7d72</property>
 </producer>
 <producer id="producer7" in="00:00:00.000" out="00:00:07.183">
  <property name="length">432</property>
  <property name="eof">pause</property>
  <property name="resource">frames/08.png</property>
  <property name="ttl">25</property>
  <property name="aspect_ratio">1</property>
  <property name="progressive">1</property>
  <property name="seekable">1</property>
  <property name="meta.media.width">1920</property>
  <property name="meta.media.height">1080</property>
  <property name="mlt_service">qimage</property>
  <property name="kdenlive:clipname"/>
  <property name="kdenlive:duration">00:00:05.000</property>
  <property name="kdenlive:folderid">47</property>
  <property name="kdenlive:id">49</property>
  <property name="kdenlive:file_size">141458</property>
  <property name="kdenlive:file_hash">e411d6ed5a0d6af1b191e11ca317c0c3</property>
 </producer>
 <producer id="producer8" in="00:00:00.000" out="00:00:04.983">
  <property name="length">00:00:05.000</property>
  <property name="eof">pause</property>
  <property name="resource">frames/09.png</property>
  <property name="ttl">25</property>
  <property name="aspect_ratio">1</property>
  <property name="progressive">1</property>
  <property name="seekable">1</property>
  <property name="meta.media.width">1920</property>
  <property name="meta.media.height">1080</property>
  <property name="mlt_service">qimage</property>
  <property name="kdenlive:clipname"/>
  <property name="kdenlive:duration">00:00:05.000</property>
  <property name="kdenlive:folderid">47</property>
  <property name="kdenlive:id">50</property>
  <property name="kdenlive:file_size">195596</property>
  <property name="kdenlive:file_hash">e0fa6c54d5f927d00376737bfd52244c</property>
 </producer>
 <producer id="producer42" in="00:00:00.000" out="00:00:13.033">
  <property name="length">783</property>
  <property name="eof">pause</property>
  <property name="resource">frames/10.png</property>
  <property name="ttl">25</property>
  <property name="aspect_ratio">1</property>
  <property name="progressive">1</property>
  <property name="seekable">1</property>
  <property name="meta.media.width">1920</property>
  <property name="meta.media.height">1080</property>
  <property name="mlt_service">qimage</property>
  <property name="kdenlive:clipname"/>
  <property name="kdenlive:duration">00:00:05.000</property>
  <property name="kdenlive:folderid">47</property>
  <property name="kdenlive:id">51</property>
  <property name="kdenlive:file_size">63115</property>
  <property name="kdenlive:file_hash">7831b16d9e8000df96f3b30896fd5de3</property>
 </producer>
 <producer id="producer46" in="00:00:00.000" out="00:00:06.017">
  <property name="length">362</property>
  <property name="eof">pause</property>
  <property name="resource">frames/12.png</property>
  <property name="ttl">25</property>
  <property name="aspect_ratio">1</property>
  <property name="progressive">1</property>
  <property name="seekable">1</property>
  <property name="meta.media.width">1920</property>
  <property name="meta.media.height">1080</property>
  <property name="mlt_service">qimage</property>
  <property name="kdenlive:clipname"/>
  <property name="kdenlive:duration">00:00:05.000</property>
  <property name="kdenlive:folderid">47</property>
  <property name="kdenlive:id">53</property>
  <property name="kdenlive:file_size">167597</property>
  <property name="kdenlive:file_hash">51f3cf5f5c81bb47d4c934306a0a95d8</property>
 </producer>
 <producer id="producer47" in="00:00:00.000" out="00:00:09.067">
  <property name="length">545</property>
  <property name="eof">pause</property>
  <property name="resource">frames/13.png</property>
  <property name="ttl">25</property>
  <property name="aspect_ratio">1</property>
  <property name="progressive">1</property>
  <property name="seekable">1</property>
  <property name="meta.media.width">1920</property>
  <property name="meta.media.height">1080</property>
  <property name="mlt_service">qimage</property>
  <property name="kdenlive:clipname"/>
  <property name="kdenlive:duration">00:00:05.000</property>
  <property name="kdenlive:folderid">47</property>
  <property name="kdenlive:id">54</property>
  <property name="kdenlive:file_size">274278</property>
  <property name="kdenlive:file_hash">783df2eb500ddc0d7baf2554ecc382ae</property>
 </producer>
 <producer id="producer49" in="00:00:00.000" out="00:00:04.983">
  <property name="length">00:00:05.000</property>
  <property name="eof">pause</property>
  <property name="resource">frames/15.png</property>
  <property name="ttl">25</property>
  <property name="aspect_ratio">1</property>
  <property name="progressive">1</property>
  <property name="seekable">1</property>
  <property name="meta.media.width">1920</property>
  <property name="meta.media.height">1080</property>
  <property name="mlt_service">qimage</property>
  <property name="kdenlive:clipname"/>
  <property name="kdenlive:duration">00:00:05.000</property>
  <property name="kdenlive:folderid">47</property>
  <property name="kdenlive:id">56</property>
  <property name="kdenlive:file_size">50402</property>
  <property name="kdenlive:file_hash">4c842929d6d43dac18ebad5e7284348e</property>
 </producer>
 <producer id="producer51" in="00:00:00.000" out="00:00:19.833">
  <property name="length">1191</property>
  <property name="eof">pause</property>
  <property name="resource">frames/16.png</property>
  <property name="ttl">25</property>
  <property name="aspect_ratio">1</property>
  <property name="progressive">1</property>
  <property name="seekable">1</property>
  <property name="meta.media.width">1920</property>
  <property name="meta.media.height">1080</property>
  <property name="mlt_service">qimage</property>
  <property name="kdenlive:clipname"/>
  <property name="kdenlive:duration">00:00:05.000</property>
  <property name="kdenlive:folderid">47</property>
  <property name="kdenlive:id">57</property>
  <property name="kdenlive:file_size">152328</property>
  <property name="kdenlive:file_hash">4bce318610945bb39933777c3048bd95</property>
 </producer>
 <producer id="producer52" in="00:00:00.000" out="00:00:04.983">
  <property name="length">00:00:05.000</property>
  <property name="eof">pause</property>
  <property name="resource">frames/17.png</property>
  <property name="ttl">25</property>
  <property name="aspect_ratio">1</property>
  <property name="progressive">1</property>
  <property name="seekable">1</property>
  <property name="meta.media.width">1920</property>
  <property name="meta.media.height">1080</property>
  <property name="mlt_service">qimage</property>
  <property name="kdenlive:clipname"/>
  <property name="kdenlive:duration">00:00:05.000</property>
  <property name="kdenlive:folderid">47</property>
  <property name="kdenlive:id">58</property>
  <property name="kdenlive:file_size">93573</property>
  <property name="kdenlive:file_hash">acda40e0edf9873f3601fdd92371cb94</property>
 </producer>
 <producer id="producer53" in="00:00:00.000" out="00:00:04.983">
  <property name="length">00:00:05.000</property>
  <property name="eof">pause</property>
  <property name="resource">frames/18.png</property>
  <property name="ttl">25</property>
  <property name="aspect_ratio">1</property>
  <property name="progressive">1</property>
  <property name="seekable">1</property>
  <property name="meta.media.width">1920</property>
  <property name="meta.media.height">1080</property>
  <property name="mlt_service">qimage</property>
  <property name="kdenlive:clipname"/>
  <property name="kdenlive:duration">00:00:05.000</property>
  <property name="kdenlive:folderid">47</property>
  <property name="kdenlive:id">59</property>
  <property name="kdenlive:file_size">154527</property>
  <property name="kdenlive:file_hash">a99ac6d76c200c022170b7bf7be5d580</property>
 </producer>
 <producer id="producer54" in="00:00:00.000" out="00:00:04.983">
  <property name="length">00:00:05.000</property>
  <property name="eof">pause</property>
  <property name="resource">frames/19.png</property>
  <property name="ttl">25</property>
  <property name="aspect_ratio">1</property>
  <property name="progressive">1</property>
  <property name="seekable">1</property>
  <property name="meta.media.width">1920</property>
  <property name="meta.media.height">1080</property>
  <property name="mlt_service">qimage</property>
  <property name="kdenlive:clipname"/>
  <property name="kdenlive:duration">00:00:05.000</property>
  <property name="kdenlive:folderid">47</property>
  <property name="kdenlive:id">60</property>
  <property name="kdenlive:file_size">196252</property>
  <property name="kdenlive:file_hash">56079a9ff10e767ff60d4e905e2d8431</property>
 </producer>
 <producer id="producer55" in="00:00:00.000" out="00:00:14.750">
  <property name="length">886</property>
  <property name="eof">pause</property>
  <property name="resource">frames/20.png</property>
  <property name="ttl">25</property>
  <property name="aspect_ratio">1</property>
  <property name="progressive">1</property>
  <property name="seekable">1</property>
  <property name="meta.media.width">1920</property>
  <property name="meta.media.height">1080</property>
  <property name="mlt_service">qimage</property>
  <property name="kdenlive:clipname"/>
  <property name="kdenlive:duration">00:00:05.000</property>
  <property name="kdenlive:folderid">47</property>
  <property name="kdenlive:id">61</property>
  <property name="kdenlive:file_size">77771</property>
  <property name="kdenlive:file_hash">2d677fecbeeb3aea02161a53e54b2fdc</property>
 </producer>
 <producer id="producer57" in="00:00:00.000" out="00:00:04.983">
  <property name="length">00:00:05.000</property>
  <property name="eof">pause</property>
  <property name="resource">frames/21.png</property>
  <property name="ttl">25</property>
  <property name="aspect_ratio">1</property>
  <property name="progressive">1</property>
  <property name="seekable">1</property>
  <property name="meta.media.width">1920</property>
  <property name="meta.media.height">1080</property>
  <property name="mlt_service">qimage</property>
  <property name="kdenlive:clipname"/>
  <property name="kdenlive:duration">00:00:05.000</property>
  <property name="kdenlive:folderid">47</property>
  <property name="kdenlive:id">62</property>
  <property name="kdenlive:file_size">120528</property>
  <property name="kdenlive:file_hash">d254330c371e65389254d7feb377dcad</property>
 </producer>
 <producer id="producer58" in="00:00:00.000" out="00:00:04.983">
  <property name="length">00:00:05.000</property>
  <property name="eof">pause</property>
  <property name="resource">frames/22.png</property>
  <property name="ttl">25</property>
  <property name="aspect_ratio">1</property>
  <property name="progressive">1</property>
  <property name="seekable">1</property>
  <property name="meta.media.width">1920</property>
  <property name="meta.media.height">1080</property>
  <property name="mlt_service">qimage</property>
  <property name="kdenlive:clipname"/>
  <property name="kdenlive:duration">00:00:05.000</property>
  <property name="kdenlive:folderid">47</property>
  <property name="kdenlive:id">63</property>
  <property name="kdenlive:file_size">65344</property>
  <property name="kdenlive:file_hash">19dc78782faf5187dd18b3c95cfaaca6</property>
 </producer>
 <producer id="producer1" in="00:00:00.000" out="00:00:24.983">
  <property name="length">1500</property>
  <property name="eof">pause</property>
  <property name="resource">media/videos/scene/1080p60/EmpiricalDist.mp4</property>
  <property name="audio_index">-1</property>
  <property name="video_index">0</property>
  <property name="mute_on_pause">0</property>
  <property name="mlt_service">avformat-novalidate</property>
  <property name="seekable">1</property>
  <property name="aspect_ratio">1</property>
  <property name="kdenlive:clipname"/>
  <property name="kdenlive:folderid">11</property>
  <property name="kdenlive:id">3</property>
  <property name="kdenlive:file_size">795325</property>
  <property name="kdenlive:file_hash">22977438c5d7777dc466ca0e5367b164</property>
  <property name="meta.media.nb_streams">1</property>
  <property name="meta.media.0.stream.type">video</property>
  <property name="meta.media.0.stream.frame_rate">60</property>
  <property name="meta.media.0.stream.sample_aspect_ratio">0</property>
  <property name="meta.media.0.codec.width">1920</property>
  <property name="meta.media.0.codec.height">1080</property>
  <property name="meta.media.0.codec.rotate">0</property>
  <property name="meta.media.0.codec.frame_rate">60</property>
  <property name="meta.media.0.codec.pix_fmt">yuv420p</property>
  <property name="meta.media.0.codec.sample_aspect_ratio">0</property>
  <property name="meta.media.0.codec.colorspace">709</property>
  <property name="meta.media.0.codec.name">h264</property>
  <property name="meta.media.0.codec.long_name">H.264 / AVC / MPEG-4 AVC / MPEG-4 part 10</property>
  <property name="meta.media.0.codec.bit_rate">248539</property>
  <property name="meta.attr.0.stream.handler_name.markup">VideoHandler</property>
  <property name="meta.attr.0.stream.vendor_id.markup">[0][0][0][0]</property>
  <property name="meta.attr.major_brand.markup">isom</property>
  <property name="meta.attr.minor_version.markup">512</property>
  <property name="meta.attr.compatible_brands.markup">isomiso2avc1mp41</property>
  <property name="meta.attr.encoder.markup">Lavf58.76.100</property>
  <property name="meta.attr.comment.markup">Rendered with Manim Community v0.9.0</property>
  <property name="meta.media.sample_aspect_num">1</property>
  <property name="meta.media.sample_aspect_den">1</property>
  <property name="meta.media.frame_rate_num">60</property>
  <property name="meta.media.frame_rate_den">1</property>
  <property name="meta.media.colorspace">709</property>
  <property name="meta.media.color_trc">2</property>
  <property name="meta.media.has_b_frames">2</property>
  <property name="meta.media.width">1920</property>
  <property name="meta.media.height">1080</property>
  <property name="meta.media.color_range">mpeg</property>
 </producer>
 <producer id="producer45" in="00:00:00.000" out="00:00:04.983">
  <property name="length">00:00:05.000</property>
  <property name="eof">pause</property>
  <property name="resource">frames/14.png</property>
  <property name="ttl">25</property>
  <property name="aspect_ratio">1</property>
  <property name="progressive">1</property>
  <property name="seekable">1</property>
  <property name="meta.media.width">1920</property>
  <property name="meta.media.height">1080</property>
  <property name="mlt_service">qimage</property>
  <property name="kdenlive:clipname"/>
  <property name="kdenlive:duration">00:00:05.000</property>
  <property name="kdenlive:folderid">47</property>
  <property name="kdenlive:id">55</property>
  <property name="kdenlive:file_size">278777</property>
  <property name="kdenlive:file_hash">a72fc6caf961502a1bb5110c29265079</property>
 </producer>
 <producer id="producer48" in="00:00:00.000" out="00:00:07.483">
  <property name="length">450</property>
  <property name="eof">pause</property>
  <property name="resource">media/videos/scene/1080p60/QuickBound.mp4</property>
  <property name="meta.media.nb_streams">1</property>
  <property name="meta.media.0.stream.type">video</property>
  <property name="meta.media.0.stream.frame_rate">60</property>
  <property name="meta.media.0.stream.sample_aspect_ratio">0</property>
  <property name="meta.media.0.codec.width">1920</property>
  <property name="meta.media.0.codec.height">1080</property>
  <property name="meta.media.0.codec.rotate">0</property>
  <property name="meta.media.0.codec.frame_rate">60</property>
  <property name="meta.media.0.codec.pix_fmt">yuv420p</property>
  <property name="meta.media.0.codec.sample_aspect_ratio">0</property>
  <property name="meta.media.0.codec.colorspace">709</property>
  <property name="meta.media.0.codec.name">h264</property>
  <property name="meta.media.0.codec.long_name">H.264 / AVC / MPEG-4 AVC / MPEG-4 part 10</property>
  <property name="meta.media.0.codec.bit_rate">192898</property>
  <property name="meta.attr.0.stream.handler_name.markup">VideoHandler</property>
  <property name="meta.attr.0.stream.vendor_id.markup">[0][0][0][0]</property>
  <property name="meta.attr.major_brand.markup">isom</property>
  <property name="meta.attr.minor_version.markup">512</property>
  <property name="meta.attr.compatible_brands.markup">isomiso2avc1mp41</property>
  <property name="meta.attr.encoder.markup">Lavf58.76.100</property>
  <property name="meta.attr.comment.markup">Rendered with Manim Community v0.9.0</property>
  <property name="seekable">1</property>
  <property name="meta.media.sample_aspect_num">1</property>
  <property name="meta.media.sample_aspect_den">1</property>
  <property name="aspect_ratio">1</property>
  <property name="audio_index">-1</property>
  <property name="video_index">0</property>
  <property name="mute_on_pause">0</property>
  <property name="mlt_service">avformat-novalidate</property>
  <property name="kdenlive:clipname"/>
  <property name="kdenlive:folderid">11</property>
  <property name="meta.media.frame_rate_num">60</property>
  <property name="meta.media.frame_rate_den">1</property>
  <property name="meta.media.colorspace">709</property>
  <property name="meta.media.color_trc">2</property>
  <property name="meta.media.has_b_frames">2</property>
  <property name="meta.media.width">1920</property>
  <property name="meta.media.height">1080</property>
  <property name="meta.media.color_range">mpeg</property>
  <property name="kdenlive:id">65</property>
  <property name="kdenlive:file_size">187146</property>
  <property name="kdenlive:file_hash">ed252572fd00c0cac5eea8f200cac322</property>
  <property name="meta.media.top_field_first">0</property>
  <property name="meta.media.progressive">1</property>
 </producer>
 <producer id="producer59" in="00:00:00.000" out="00:00:09.200">
  <property name="length">553</property>
  <property name="eof">pause</property>
  <property name="resource">clips/para29.flac</property>
  <property name="meta.media.nb_streams">1</property>
  <property name="meta.media.0.stream.type">audio</property>
  <property name="meta.media.0.codec.sample_fmt">s16</property>
  <property name="meta.media.0.codec.sample_rate">44100</property>
  <property name="meta.media.0.codec.channels">1</property>
  <property name="meta.media.0.codec.name">flac</property>
  <property name="meta.media.0.codec.long_name">FLAC (Free Lossless Audio Codec)</property>
  <property name="meta.media.0.codec.bit_rate">0</property>
  <property name="seekable">1</property>
  <property name="audio_index">0</property>
  <property name="video_index">-1</property>
  <property name="mute_on_pause">1</property>
  <property name="mlt_service">avformat</property>
  <property name="kdenlive:clipname"/>
  <property name="kdenlive:folderid">12</property>
  <property name="kdenlive:id">66</property>
  <property name="kdenlive:file_size">451117</property>
  <property name="kdenlive:file_hash">7da70f85b93b4bd96b4adba2b83ccc67</property>
  <property name="kdenlive:audio_max0">173</property>
 </producer>
 <producer id="producer60" in="00:00:00.000" out="00:00:12.533">
  <property name="length">753</property>
  <property name="eof">pause</property>
  <property name="resource">clips/para30.flac</property>
  <property name="meta.media.nb_streams">1</property>
  <property name="meta.media.0.stream.type">audio</property>
  <property name="meta.media.0.codec.sample_fmt">s16</property>
  <property name="meta.media.0.codec.sample_rate">44100</property>
  <property name="meta.media.0.codec.channels">1</property>
  <property name="meta.media.0.codec.name">flac</property>
  <property name="meta.media.0.codec.long_name">FLAC (Free Lossless Audio Codec)</property>
  <property name="meta.media.0.codec.bit_rate">0</property>
  <property name="seekable">1</property>
  <property name="audio_index">0</property>
  <property name="video_index">-1</property>
  <property name="mute_on_pause">1</property>
  <property name="mlt_service">avformat</property>
  <property name="kdenlive:clipname"/>
  <property name="kdenlive:folderid">12</property>
  <property name="kdenlive:id">67</property>
  <property name="kdenlive:file_size">605311</property>
  <property name="kdenlive:file_hash">2bab2ffdc3ebc0f90a9a3ed8c58c878b</property>
  <property name="kdenlive:audio_max0">175</property>
 </producer>
 <producer id="producer61" in="00:00:00.000" out="00:00:06.550">
  <property name="length">394</property>
  <property name="eof">pause</property>
  <property name="resource">clips/para31.flac</property>
  <property name="meta.media.nb_streams">1</property>
  <property name="meta.media.0.stream.type">audio</property>
  <property name="meta.media.0.codec.sample_fmt">s16</property>
  <property name="meta.media.0.codec.sample_rate">44100</property>
  <property name="meta.media.0.codec.channels">1</property>
  <property name="meta.media.0.codec.name">flac</property>
  <property name="meta.media.0.codec.long_name">FLAC (Free Lossless Audio Codec)</property>
  <property name="meta.media.0.codec.bit_rate">0</property>
  <property name="seekable">1</property>
  <property name="audio_index">0</property>
  <property name="video_index">-1</property>
  <property name="mute_on_pause">1</property>
  <property name="mlt_service">avformat</property>
  <property name="kdenlive:clipname"/>
  <property name="kdenlive:folderid">12</property>
  <property name="kdenlive:id">68</property>
  <property name="kdenlive:file_size">327313</property>
  <property name="kdenlive:file_hash">33642d7de0be5fc374f1430644173a2a</property>
  <property name="kdenlive:audio_max0">171</property>
 </producer>
 <producer id="producer62" in="00:00:00.000" out="00:00:04.983">
  <property name="length">00:00:05.000</property>
  <property name="eof">pause</property>
  <property name="resource">frames/23.png</property>
  <property name="ttl">25</property>
  <property name="aspect_ratio">1</property>
  <property name="progressive">1</property>
  <property name="seekable">1</property>
  <property name="meta.media.width">1920</property>
  <property name="meta.media.height">1080</property>
  <property name="mlt_service">qimage</property>
  <property name="kdenlive:clipname"/>
  <property name="kdenlive:duration">00:00:05.000</property>
  <property name="kdenlive:folderid">47</property>
  <property name="kdenlive:id">69</property>
  <property name="kdenlive:file_size">112472</property>
  <property name="kdenlive:file_hash">814e7f3e4f7cf2fd7662367120a839ea</property>
 </producer>
 <producer id="producer63" in="00:00:00.000" out="00:00:12.083">
  <property name="length">726</property>
  <property name="eof">pause</property>
  <property name="resource">frames/24.png</property>
  <property name="ttl">25</property>
  <property name="aspect_ratio">1</property>
  <property name="progressive">1</property>
  <property name="seekable">1</property>
  <property name="meta.media.width">1920</property>
  <property name="meta.media.height">1080</property>
  <property name="mlt_service">qimage</property>
  <property name="kdenlive:clipname"/>
  <property name="kdenlive:duration">00:00:05.000</property>
  <property name="kdenlive:folderid">47</property>
  <property name="kdenlive:id">70</property>
  <property name="kdenlive:file_size">245855</property>
  <property name="kdenlive:file_hash">c8755ae88ce0fb25fb3c1d3d41c2e2e0</property>
 </producer>
 <producer id="producer64" in="00:00:00.000" out="00:00:06.783">
  <property name="length">408</property>
  <property name="eof">pause</property>
  <property name="resource">frames/25.png</property>
  <property name="ttl">25</property>
  <property name="aspect_ratio">1</property>
  <property name="progressive">1</property>
  <property name="seekable">1</property>
  <property name="meta.media.width">1920</property>
  <property name="meta.media.height">1080</property>
  <property name="mlt_service">qimage</property>
  <property name="kdenlive:clipname"/>
  <property name="kdenlive:duration">00:00:05.000</property>
  <property name="kdenlive:folderid">47</property>
  <property name="kdenlive:id">71</property>
  <property name="kdenlive:file_size">250783</property>
  <property name="kdenlive:file_hash">dabe2e8ff155ff8908dac1f434a1a66d</property>
 </producer>
 <producer id="producer65" in="00:00:00.000" out="00:00:17.600">
  <property name="length">1057</property>
  <property name="eof">pause</property>
  <property name="resource">frames/11.png</property>
  <property name="ttl">25</property>
  <property name="aspect_ratio">1</property>
  <property name="progressive">1</property>
  <property name="seekable">1</property>
  <property name="meta.media.width">1920</property>
  <property name="meta.media.height">1080</property>
  <property name="mlt_service">qimage</property>
  <property name="kdenlive:clipname"/>
  <property name="kdenlive:duration">00:00:05.000</property>
  <property name="kdenlive:folderid">47</property>
  <property name="kdenlive:id">52</property>
  <property name="kdenlive:file_size">133279</property>
  <property name="kdenlive:file_hash">a0e903d7353e9a50710a179af8dc960e</property>
 </producer>
 <producer id="producer66" in="00:00:00.000" out="00:00:08.983">
  <property name="length">540</property>
  <property name="eof">pause</property>
  <property name="resource">media/videos/scene/1080p60/Conclusion.mp4</property>
  <property name="audio_index">-1</property>
  <property name="video_index">0</property>
  <property name="mute_on_pause">0</property>
  <property name="mlt_service">avformat-novalidate</property>
  <property name="seekable">1</property>
  <property name="aspect_ratio">1</property>
  <property name="kdenlive:clipname"/>
  <property name="kdenlive:folderid">11</property>
  <property name="kdenlive:id">64</property>
  <property name="kdenlive:file_size">493281</property>
  <property name="kdenlive:file_hash">0e8a6a48ab272bea5ae7f9ffab0f24f4</property>
  <property name="meta.media.nb_streams">1</property>
  <property name="meta.media.0.stream.type">video</property>
  <property name="meta.media.0.stream.frame_rate">60</property>
  <property name="meta.media.0.stream.sample_aspect_ratio">0</property>
  <property name="meta.media.0.codec.width">1920</property>
  <property name="meta.media.0.codec.height">1080</property>
  <property name="meta.media.0.codec.rotate">0</property>
  <property name="meta.media.0.codec.frame_rate">60</property>
  <property name="meta.media.0.codec.pix_fmt">yuv420p</property>
  <property name="meta.media.0.codec.sample_aspect_ratio">0</property>
  <property name="meta.media.0.codec.colorspace">709</property>
  <property name="meta.media.0.codec.name">h264</property>
  <property name="meta.media.0.codec.long_name">H.264 / AVC / MPEG-4 AVC / MPEG-4 part 10</property>
  <property name="meta.media.0.codec.bit_rate">431990</property>
  <property name="meta.attr.0.stream.handler_name.markup">VideoHandler</property>
  <property name="meta.attr.0.stream.vendor_id.markup">[0][0][0][0]</property>
  <property name="meta.attr.major_brand.markup">isom</property>
  <property name="meta.attr.minor_version.markup">512</property>
  <property name="meta.attr.compatible_brands.markup">isomiso2avc1mp41</property>
  <property name="meta.attr.encoder.markup">Lavf58.76.100</property>
  <property name="meta.attr.comment.markup">Rendered with Manim Community v0.9.0</property>
  <property name="meta.media.sample_aspect_num">1</property>
  <property name="meta.media.sample_aspect_den">1</property>
  <property name="meta.media.frame_rate_num">60</property>
  <property name="meta.media.frame_rate_den">1</property>
  <property name="meta.media.colorspace">709</property>
  <property name="meta.media.color_trc">2</property>
  <property name="meta.media.has_b_frames">2</property>
  <property name="meta.media.width">1920</property>
  <property name="meta.media.height">1080</property>
  <property name="meta.media.color_range">mpeg</property>
 </producer>
 <playlist id="main_bin">
  <property name="kdenlive:folder.-1.11">anims</property>
  <property name="kdenlive:folder.-1.12">audio</property>
  <property name="kdenlive:folder.-1.47">frames</property>
  <property name="kdenlive:docproperties.activeTrack">1</property>
  <property name="kdenlive:docproperties.audioChannels">2</property>
  <property name="kdenlive:docproperties.audioTarget">-1</property>
  <property name="kdenlive:docproperties.disablepreview">0</property>
  <property name="kdenlive:docproperties.documentid">1630343189403</property>
  <property name="kdenlive:docproperties.enableTimelineZone">0</property>
  <property name="kdenlive:docproperties.enableexternalproxy">0</property>
  <property name="kdenlive:docproperties.enableproxy">0</property>
  <property name="kdenlive:docproperties.externalproxyparams">../Sub;;S03.MP4;../Clip;;.MXF</property>
  <property name="kdenlive:docproperties.generateimageproxy">0</property>
  <property name="kdenlive:docproperties.generateproxy">0</property>
  <property name="kdenlive:docproperties.groups">[
]
</property>
  <property name="kdenlive:docproperties.kdenliveversion">21.08.0</property>
  <property name="kdenlive:docproperties.position">71</property>
  <property name="kdenlive:docproperties.previewextension"/>
  <property name="kdenlive:docproperties.previewparameters"/>
  <property name="kdenlive:docproperties.profile">atsc_1080p_60</property>
  <property name="kdenlive:docproperties.proxyextension"/>
  <property name="kdenlive:docproperties.proxyimageminsize">2000</property>
  <property name="kdenlive:docproperties.proxyimagesize">800</property>
  <property name="kdenlive:docproperties.proxyminsize">1000</property>
  <property name="kdenlive:docproperties.proxyparams"/>
  <property name="kdenlive:docproperties.proxyresize">640</property>
  <property name="kdenlive:docproperties.scrollPos">0</property>
  <property name="kdenlive:docproperties.seekOffset">30000</property>
  <property name="kdenlive:docproperties.version">1.01</property>
  <property name="kdenlive:docproperties.verticalzoom">1</property>
  <property name="kdenlive:docproperties.videoTarget">2</property>
  <property name="kdenlive:docproperties.zonein">0</property>
  <property name="kdenlive:docproperties.zoneout">75</property>
  <property name="kdenlive:docproperties.zoom">9</property>
  <property name="kdenlive:expandedFolders">12;47</property>
  <property name="kdenlive:documentnotes"/>
  <property name="kdenlive:docproperties.renderaudioquality">192</property>
  <property name="kdenlive:docproperties.rendercategory">Generic (HD for web, mobile devices...)</property>
  <property name="kdenlive:docproperties.renderendguide">-1</property>
  <property name="kdenlive:docproperties.renderexportaudio">0</property>
  <property name="kdenlive:docproperties.renderfield">0</property>
  <property name="kdenlive:docproperties.renderguide">0</property>
  <property name="kdenlive:docproperties.renderplay">0</property>
  <property name="kdenlive:docproperties.renderprofile">MP4-H264/AAC</property>
  <property name="kdenlive:docproperties.renderquality">23</property>
  <property name="kdenlive:docproperties.renderratio">1</property>
  <property name="kdenlive:docproperties.renderrescale">0</property>
  <property name="kdenlive:docproperties.renderrescaleheight">540</property>
  <property name="kdenlive:docproperties.renderrescalewidth">960</property>
  <property name="kdenlive:docproperties.renderscanning">0</property>
  <property name="kdenlive:docproperties.renderspeed">2</property>
  <property name="kdenlive:docproperties.renderstartguide">-1</property>
  <property name="kdenlive:docproperties.rendertcoverlay">0</property>
  <property name="kdenlive:docproperties.rendertctype">0</property>
  <property name="kdenlive:docproperties.rendertwopass">0</property>
  <property name="kdenlive:docproperties.renderurl">output.mp4</property>
  <property name="kdenlive:docproperties.renderzone">0</property>
  <property name="xml_retain">1</property>
  <entry producer="producer0" in="00:00:00.000" out="00:00:10.983"/>
  <entry producer="producer2" in="00:00:00.000" out="00:00:06.483"/>
  <entry producer="producer44" in="00:00:00.000" out="00:00:10.483"/>
  <entry producer="producer4" in="00:00:00.000" out="00:00:19.483"/>
  <entry producer="producer5" in="00:00:00.000" out="00:00:25.483"/>
  <entry producer="producer56" in="00:00:00.000" out="00:00:28.983"/>
  <entry producer="producer43" in="00:00:00.000" out="00:00:35.983"/>
  <entry producer="producer50" in="00:00:00.000" out="00:00:10.483"/>
  <entry producer="producer36" in="00:00:00.000" out="00:00:13.317"/>
  <entry producer="producer35" in="00:00:00.000" out="00:00:23.783"/>
  <entry producer="producer34" in="00:00:00.000" out="00:00:18.767"/>
  <entry producer="producer33" in="00:00:00.000" out="00:00:15.233"/>
  <entry producer="producer32" in="00:00:00.000" out="00:00:09.767"/>
  <entry producer="producer31" in="00:00:00.000" out="00:00:12.250"/>
  <entry producer="producer30" in="00:00:00.000" out="00:00:05.850"/>
  <entry producer="producer29" in="00:00:00.000" out="00:00:19.517"/>
  <entry producer="producer28" in="00:00:00.000" out="00:00:09.900"/>
  <entry producer="producer27" in="00:00:00.000" out="00:00:03.500"/>
  <entry producer="producer26" in="00:00:00.000" out="00:00:23.033"/>
  <entry producer="producer25" in="00:00:00.000" out="00:00:12.550"/>
  <entry producer="producer24" in="00:00:00.000" out="00:00:05.117"/>
  <entry producer="producer23" in="00:00:00.000" out="00:00:08.617"/>
  <entry producer="producer22" in="00:00:00.000" out="00:00:10.483"/>
  <entry producer="producer21" in="00:00:00.000" out="00:00:07.967"/>
  <entry producer="producer20" in="00:00:00.000" out="00:00:14.000"/>
  <entry producer="producer19" in="00:00:00.000" out="00:00:09.550"/>
  <entry producer="producer18" in="00:00:00.000" out="00:00:14.183"/>
  <entry producer="producer17" in="00:00:00.000" out="00:00:04.017"/>
  <entry producer="producer16" in="00:00:00.000" out="00:00:03.783"/>
  <entry producer="producer15" in="00:00:00.000" out="00:00:04.033"/>
  <entry producer="producer14" in="00:00:00.000" out="00:00:10.383"/>
  <entry producer="producer13" in="00:00:00.000" out="00:00:18.967"/>
  <entry producer="producer12" in="00:00:00.000" out="00:00:04.717"/>
  <entry producer="producer11" in="00:00:00.000" out="00:00:08.650"/>
  <entry producer="producer10" in="00:00:00.000" out="00:00:05.450"/>
  <entry producer="producer9" in="00:00:00.000" out="00:00:06.767"/>
  <entry producer="producer37" in="00:00:00.000" out="00:00:05.033"/>
  <entry producer="producer38" in="00:00:00.000" out="00:00:08.733"/>
  <entry producer="producer39" in="00:00:00.000" out="00:00:17.450"/>
  <entry producer="producer40" in="00:00:00.000" out="00:00:04.983"/>
  <entry producer="producer41" in="00:00:00.000" out="00:00:04.983"/>
  <entry producer="producer3" in="00:00:00.000" out="00:00:04.983"/>
  <entry producer="producer6" in="00:00:00.000" out="00:00:04.983"/>
  <entry producer="producer7" in="00:00:00.000" out="00:00:07.183"/>
  <entry producer="producer8" in="00:00:00.000" out="00:00:04.983"/>
  <entry producer="producer42" in="00:00:00.000" out="00:00:13.033"/>
  <entry producer="producer46" in="00:00:00.000" out="00:00:06.017"/>
  <entry producer="producer47" in="00:00:00.000" out="00:00:09.067"/>
  <entry producer="producer49" in="00:00:00.000" out="00:00:04.983"/>
  <entry producer="producer51" in="00:00:00.000" out="00:00:19.833"/>
  <entry producer="producer52" in="00:00:00.000" out="00:00:04.983"/>
  <entry producer="producer53" in="00:00:00.000" out="00:00:04.983"/>
  <entry producer="producer54" in="00:00:00.000" out="00:00:04.983"/>
  <entry producer="producer55" in="00:00:00.000" out="00:00:14.750"/>
  <entry producer="producer57" in="00:00:00.000" out="00:00:04.983"/>
  <entry producer="producer58" in="00:00:00.000" out="00:00:04.983"/>
  <entry producer="producer1" in="00:00:00.000" out="00:00:24.983"/>
  <entry producer="producer45" in="00:00:00.000" out="00:00:04.983"/>
  <entry producer="producer48" in="00:00:00.000" out="00:00:07.483"/>
  <entry producer="producer59" in="00:00:00.000" out="00:00:09.200"/>
  <entry producer="producer60" in="00:00:00.000" out="00:00:12.533"/>
  <entry producer="producer61" in="00:00:00.000" out="00:00:06.550"/>
  <entry producer="producer62" in="00:00:00.000" out="00:00:04.983"/>
  <entry producer="producer63" in="00:00:00.000" out="00:00:04.983"/>
  <entry producer="producer64" in="00:00:00.000" out="00:00:04.983"/>
  <entry producer="producer65" in="00:00:00.000" out="00:00:04.983"/>
  <entry producer="producer66" in="00:00:00.000" out="00:00:08.983"/>
 </playlist>
 <producer id="black_track" in="00:00:00.000" out="00:13:59.200">
  <property name="length">2147483647</property>
  <property name="eof">continue</property>
  <property name="resource">black</property>
  <property name="aspect_ratio">1</property>
  <property name="mlt_service">color</property>
  <property name="mlt_image_format">rgb24a</property>
  <property name="set.test_audio">0</property>
 </producer>
 <playlist id="playlist0">
  <property name="kdenlive:audio_track">1</property>
 </playlist>
 <playlist id="playlist1">
  <property name="kdenlive:audio_track">1</property>
 </playlist>
 <tractor id="tractor0" in="00:00:00.000">
  <property name="kdenlive:audio_track">1</property>
  <property name="kdenlive:trackheight">85</property>
  <property name="kdenlive:timeline_active">1</property>
  <property name="kdenlive:collapsed">0</property>
  <property name="kdenlive:thumbs_format"/>
  <property name="kdenlive:audio_rec"/>
  <track hide="video" producer="playlist0"/>
  <track hide="video" producer="playlist1"/>
  <filter id="filter0">
   <property name="window">75</property>
   <property name="max_gain">20dB</property>
   <property name="mlt_service">volume</property>
   <property name="internal_added">237</property>
   <property name="disable">1</property>
  </filter>
  <filter id="filter1">
   <property name="channel">-1</property>
   <property name="mlt_service">panner</property>
   <property name="internal_added">237</property>
   <property name="start">0.5</property>
   <property name="disable">1</property>
  </filter>
  <filter id="filter2">
   <property name="iec_scale">0</property>
   <property name="mlt_service">audiolevel</property>
   <property name="disable">1</property>
  </filter>
 </tractor>
 <producer id="producer67" in="00:00:00.000" out="00:00:13.317">
  <property name="length">800</property>
  <property name="eof">pause</property>
  <property name="resource">clips/para01.flac</property>
  <property name="audio_index">0</property>
  <property name="video_index">-1</property>
  <property name="mute_on_pause">0</property>
  <property name="mlt_service">avformat-novalidate</property>
  <property name="meta.media.nb_streams">1</property>
  <property name="meta.media.0.stream.type">audio</property>
  <property name="meta.media.0.codec.sample_fmt">s16</property>
  <property name="meta.media.0.codec.sample_rate">44100</property>
  <property name="meta.media.0.codec.channels">1</property>
  <property name="meta.media.0.codec.name">flac</property>
  <property name="meta.media.0.codec.long_name">FLAC (Free Lossless Audio Codec)</property>
  <property name="meta.media.0.codec.bit_rate">0</property>
  <property name="seekable">1</property>
  <property name="kdenlive:clipname"/>
  <property name="kdenlive:folderid">12</property>
  <property name="kdenlive:id">13</property>
  <property name="kdenlive:file_size">672493</property>
  <property name="kdenlive:file_hash">aa6491dfde770013e7954aee177e31fc</property>
  <property name="kdenlive:audio_max0">166</property>
  <property name="xml">was here</property>
  <property name="set.test_audio">0</property>
  <property name="set.test_image">1</property>
 </producer>
 <producer id="producer68" in="00:00:00.000" out="00:00:23.783">
  <property name="length">1428</property>
  <property name="eof">pause</property>
  <property name="resource">clips/para02.flac</property>
  <property name="audio_index">0</property>
  <property name="video_index">-1</property>
  <property name="mute_on_pause">0</property>
  <property name="mlt_service">avformat-novalidate</property>
  <property name="meta.media.nb_streams">1</property>
  <property name="meta.media.0.stream.type">audio</property>
  <property name="meta.media.0.codec.sample_fmt">s16</property>
  <property name="meta.media.0.codec.sample_rate">44100</property>
  <property name="meta.media.0.codec.channels">1</property>
  <property name="meta.media.0.codec.name">flac</property>
  <property name="meta.media.0.codec.long_name">FLAC (Free Lossless Audio Codec)</property>
  <property name="meta.media.0.codec.bit_rate">0</property>
  <property name="seekable">1</property>
  <property name="kdenlive:clipname"/>
  <property name="kdenlive:folderid">12</property>
  <property name="kdenlive:id">14</property>
  <property name="kdenlive:file_size">1161798</property>
  <property name="kdenlive:file_hash">68496152a51fda47dbf7cdc17f175031</property>
  <property name="kdenlive:audio_max0">164</property>
  <property name="xml">was here</property>
  <property name="set.test_audio">0</property>
  <property name="set.test_image">1</property>
 </producer>
 <producer id="producer69" in="00:00:00.000" out="00:00:18.767">
  <property name="length">1127</property>
  <property name="eof">pause</property>
  <property name="resource">clips/para03.flac</property>
  <property name="audio_index">0</property>
  <property name="video_index">-1</property>
  <property name="mute_on_pause">0</property>
  <property name="mlt_service">avformat-novalidate</property>
  <property name="meta.media.nb_streams">1</property>
  <property name="meta.media.0.stream.type">audio</property>
  <property name="meta.media.0.codec.sample_fmt">s16</property>
  <property name="meta.media.0.codec.sample_rate">44100</property>
  <property name="meta.media.0.codec.channels">1</property>
  <property name="meta.media.0.codec.name">flac</property>
  <property name="meta.media.0.codec.long_name">FLAC (Free Lossless Audio Codec)</property>
  <property name="meta.media.0.codec.bit_rate">0</property>
  <property name="seekable">1</property>
  <property name="kdenlive:clipname"/>
  <property name="kdenlive:folderid">12</property>
  <property name="kdenlive:id">15</property>
  <property name="kdenlive:file_size">928388</property>
  <property name="kdenlive:file_hash">faa16c945f03722ee850906094fd0a6f</property>
  <property name="kdenlive:audio_max0">167</property>
  <property name="xml">was here</property>
  <property name="set.test_audio">0</property>
  <property name="set.test_image">1</property>
 </producer>
 <producer id="producer70" in="00:00:00.000" out="00:00:15.233">
  <property name="length">915</property>
  <property name="eof">pause</property>
  <property name="resource">clips/para04.flac</property>
  <property name="audio_index">0</property>
  <property name="video_index">-1</property>
  <property name="mute_on_pause">0</property>
  <property name="mlt_service">avformat-novalidate</property>
  <property name="meta.media.nb_streams">1</property>
  <property name="meta.media.0.stream.type">audio</property>
  <property name="meta.media.0.codec.sample_fmt">s16</property>
  <property name="meta.media.0.codec.sample_rate">44100</property>
  <property name="meta.media.0.codec.channels">1</property>
  <property name="meta.media.0.codec.name">flac</property>
  <property name="meta.media.0.codec.long_name">FLAC (Free Lossless Audio Codec)</property>
  <property name="meta.media.0.codec.bit_rate">0</property>
  <property name="seekable">1</property>
  <property name="kdenlive:clipname"/>
  <property name="kdenlive:folderid">12</property>
  <property name="kdenlive:id">16</property>
  <property name="kdenlive:file_size">774607</property>
  <property name="kdenlive:file_hash">47a39b775a583ebbd6da5f6e3b1583b9</property>
  <property name="kdenlive:audio_max0">164</property>
  <property name="xml">was here</property>
  <property name="set.test_audio">0</property>
  <property name="set.test_image">1</property>
 </producer>
 <producer id="producer71" in="00:00:00.000" out="00:00:09.767">
  <property name="length">587</property>
  <property name="eof">pause</property>
  <property name="resource">clips/para05.flac</property>
  <property name="audio_index">0</property>
  <property name="video_index">-1</property>
  <property name="mute_on_pause">0</property>
  <property name="mlt_service">avformat-novalidate</property>
  <property name="meta.media.nb_streams">1</property>
  <property name="meta.media.0.stream.type">audio</property>
  <property name="meta.media.0.codec.sample_fmt">s16</property>
  <property name="meta.media.0.codec.sample_rate">44100</property>
  <property name="meta.media.0.codec.channels">1</property>
  <property name="meta.media.0.codec.name">flac</property>
  <property name="meta.media.0.codec.long_name">FLAC (Free Lossless Audio Codec)</property>
  <property name="meta.media.0.codec.bit_rate">0</property>
  <property name="seekable">1</property>
  <property name="kdenlive:clipname"/>
  <property name="kdenlive:folderid">12</property>
  <property name="kdenlive:id">17</property>
  <property name="kdenlive:file_size">480491</property>
  <property name="kdenlive:file_hash">de0f9cba66de0ceefdda2d277787784c</property>
  <property name="kdenlive:audio_max0">162</property>
  <property name="xml">was here</property>
  <property name="set.test_audio">0</property>
  <property name="set.test_image">1</property>
 </producer>
 <producer id="producer72" in="00:00:00.000" out="00:00:12.250">
  <property name="length">736</property>
  <property name="eof">pause</property>
  <property name="resource">clips/para06.flac</property>
  <property name="audio_index">0</property>
  <property name="video_index">-1</property>
  <property name="mute_on_pause">0</property>
  <property name="mlt_service">avformat-novalidate</property>
  <property name="meta.media.nb_streams">1</property>
  <property name="meta.media.0.stream.type">audio</property>
  <property name="meta.media.0.codec.sample_fmt">s16</property>
  <property name="meta.media.0.codec.sample_rate">44100</property>
  <property name="meta.media.0.codec.channels">1</property>
  <property name="meta.media.0.codec.name">flac</property>
  <property name="meta.media.0.codec.long_name">FLAC (Free Lossless Audio Codec)</property>
  <property name="meta.media.0.codec.bit_rate">0</property>
  <property name="seekable">1</property>
  <property name="kdenlive:clipname"/>
  <property name="kdenlive:folderid">12</property>
  <property name="kdenlive:id">18</property>
  <property name="kdenlive:file_size">603545</property>
  <property name="kdenlive:file_hash">f17efba4c9359808328c62d5ba93c602</property>
  <property name="kdenlive:audio_max0">169</property>
  <property name="xml">was here</property>
  <property name="set.test_audio">0</property>
  <property name="set.test_image">1</property>
 </producer>
 <producer id="producer73" in="00:00:00.000" out="00:00:05.850">
  <property name="length">352</property>
  <property name="eof">pause</property>
  <property name="resource">clips/para07.flac</property>
  <property name="audio_index">0</property>
  <property name="video_index">-1</property>
  <property name="mute_on_pause">0</property>
  <property name="mlt_service">avformat-novalidate</property>
  <property name="meta.media.nb_streams">1</property>
  <property name="meta.media.0.stream.type">audio</property>
  <property name="meta.media.0.codec.sample_fmt">s16</property>
  <property name="meta.media.0.codec.sample_rate">44100</property>
  <property name="meta.media.0.codec.channels">1</property>
  <property name="meta.media.0.codec.name">flac</property>
  <property name="meta.media.0.codec.long_name">FLAC (Free Lossless Audio Codec)</property>
  <property name="meta.media.0.codec.bit_rate">0</property>
  <property name="seekable">1</property>
  <property name="kdenlive:clipname"/>
  <property name="kdenlive:folderid">12</property>
  <property name="kdenlive:id">19</property>
  <property name="kdenlive:file_size">283861</property>
  <property name="kdenlive:file_hash">3b1735c0becb0611869e3de98bd9604a</property>
  <property name="kdenlive:audio_max0">162</property>
  <property name="xml">was here</property>
  <property name="set.test_audio">0</property>
  <property name="set.test_image">1</property>
 </producer>
 <producer id="producer74" in="00:00:00.000" out="00:00:19.517">
  <property name="length">1172</property>
  <property name="eof">pause</property>
  <property name="resource">clips/para08.flac</property>
  <property name="audio_index">0</property>
  <property name="video_index">-1</property>
  <property name="mute_on_pause">0</property>
  <property name="mlt_service">avformat-novalidate</property>
  <property name="meta.media.nb_streams">1</property>
  <property name="meta.media.0.stream.type">audio</property>
  <property name="meta.media.0.codec.sample_fmt">s16</property>
  <property name="meta.media.0.codec.sample_rate">44100</property>
  <property name="meta.media.0.codec.channels">1</property>
  <property name="meta.media.0.codec.name">flac</property>
  <property name="meta.media.0.codec.long_name">FLAC (Free Lossless Audio Codec)</property>
  <property name="meta.media.0.codec.bit_rate">0</property>
  <property name="seekable">1</property>
  <property name="kdenlive:clipname"/>
  <property name="kdenlive:folderid">12</property>
  <property name="kdenlive:id">20</property>
  <property name="kdenlive:file_size">945323</property>
  <property name="kdenlive:file_hash">3aa5318bdf161594b832b13ead5e1aea</property>
  <property name="kdenlive:audio_max0">165</property>
  <property name="xml">was here</property>
  <property name="set.test_audio">0</property>
  <property name="set.test_image">1</property>
 </producer>
 <producer id="producer75" in="00:00:00.000" out="00:00:09.900">
  <property name="length">595</property>
  <property name="eof">pause</property>
  <property name="resource">clips/para09.flac</property>
  <property name="audio_index">0</property>
  <property name="video_index">-1</property>
  <property name="mute_on_pause">0</property>
  <property name="mlt_service">avformat-novalidate</property>
  <property name="meta.media.nb_streams">1</property>
  <property name="meta.media.0.stream.type">audio</property>
  <property name="meta.media.0.codec.sample_fmt">s16</property>
  <property name="meta.media.0.codec.sample_rate">44100</property>
  <property name="meta.media.0.codec.channels">1</property>
  <property name="meta.media.0.codec.name">flac</property>
  <property name="meta.media.0.codec.long_name">FLAC (Free Lossless Audio Codec)</property>
  <property name="meta.media.0.codec.bit_rate">0</property>
  <property name="seekable">1</property>
  <property name="kdenlive:clipname"/>
  <property name="kdenlive:folderid">12</property>
  <property name="kdenlive:id">21</property>
  <property name="kdenlive:file_size">477153</property>
  <property name="kdenlive:file_hash">6de6cafa263c2ff8d05b2390c968ff59</property>
  <property name="kdenlive:audio_max0">162</property>
  <property name="xml">was here</property>
  <property name="set.test_audio">0</property>
  <property name="set.test_image">1</property>
 </producer>
 <producer id="producer76" in="00:00:00.000" out="00:00:03.500">
  <property name="length">211</property>
  <property name="eof">pause</property>
  <property name="resource">clips/para10.flac</property>
  <property name="audio_index">0</property>
  <property name="video_index">-1</property>
  <property name="mute_on_pause">0</property>
  <property name="mlt_service">avformat-novalidate</property>
  <property name="meta.media.nb_streams">1</property>
  <property name="meta.media.0.stream.type">audio</property>
  <property name="meta.media.0.codec.sample_fmt">s16</property>
  <property name="meta.media.0.codec.sample_rate">44100</property>
  <property name="meta.media.0.codec.channels">1</property>
  <property name="meta.media.0.codec.name">flac</property>
  <property name="meta.media.0.codec.long_name">FLAC (Free Lossless Audio Codec)</property>
  <property name="meta.media.0.codec.bit_rate">0</property>
  <property name="seekable">1</property>
  <property name="kdenlive:clipname"/>
  <property name="kdenlive:folderid">12</property>
  <property name="kdenlive:id">22</property>
  <property name="kdenlive:file_size">173266</property>
  <property name="kdenlive:file_hash">7471f01749daf11d7893848ac0103769</property>
  <property name="kdenlive:audio_max0">160</property>
  <property name="xml">was here</property>
  <property name="set.test_audio">0</property>
  <property name="set.test_image">1</property>
 </producer>
 <producer id="producer77" in="00:00:00.000" out="00:00:23.033">
  <property name="length">1383</property>
  <property name="eof">pause</property>
  <property name="resource">clips/para11.flac</property>
  <property name="audio_index">0</property>
  <property name="video_index">-1</property>
  <property name="mute_on_pause">0</property>
  <property name="mlt_service">avformat-novalidate</property>
  <property name="meta.media.nb_streams">1</property>
  <property name="meta.media.0.stream.type">audio</property>
  <property name="meta.media.0.codec.sample_fmt">s16</property>
  <property name="meta.media.0.codec.sample_rate">44100</property>
  <property name="meta.media.0.codec.channels">1</property>
  <property name="meta.media.0.codec.name">flac</property>
  <property name="meta.media.0.codec.long_name">FLAC (Free Lossless Audio Codec)</property>
  <property name="meta.media.0.codec.bit_rate">0</property>
  <property name="seekable">1</property>
  <property name="kdenlive:clipname"/>
  <property name="kdenlive:folderid">12</property>
  <property name="kdenlive:id">23</property>
  <property name="kdenlive:file_size">1133021</property>
  <property name="kdenlive:file_hash">fe4099ef5b51e40103a9aad324dd44d2</property>
  <property name="kdenlive:audio_max0">163</property>
  <property name="xml">was here</property>
  <property name="set.test_audio">0</property>
  <property name="set.test_image">1</property>
 </producer>
 <producer id="producer78" in="00:00:00.000" out="00:00:12.550">
  <property name="length">754</property>
  <property name="eof">pause</property>
  <property name="resource">clips/para12.flac</property>
  <property name="audio_index">0</property>
  <property name="video_index">-1</property>
  <property name="mute_on_pause">0</property>
  <property name="mlt_service">avformat-novalidate</property>
  <property name="meta.media.nb_streams">1</property>
  <property name="meta.media.0.stream.type">audio</property>
  <property name="meta.media.0.codec.sample_fmt">s16</property>
  <property name="meta.media.0.codec.sample_rate">44100</property>
  <property name="meta.media.0.codec.channels">1</property>
  <property name="meta.media.0.codec.name">flac</property>
  <property name="meta.media.0.codec.long_name">FLAC (Free Lossless Audio Codec)</property>
  <property name="meta.media.0.codec.bit_rate">0</property>
  <property name="seekable">1</property>
  <property name="kdenlive:clipname"/>
  <property name="kdenlive:folderid">12</property>
  <property name="kdenlive:id">24</property>
  <property name="kdenlive:file_size">631374</property>
  <property name="kdenlive:file_hash">4dcf2848563312207f9298f57d0a887a</property>
  <property name="kdenlive:audio_max0">168</property>
  <property name="xml">was here</property>
  <property name="set.test_audio">0</property>
  <property name="set.test_image">1</property>
 </producer>
 <producer id="producer79" in="00:00:00.000" out="00:00:05.117">
  <property name="length">308</property>
  <property name="eof">pause</property>
  <property name="resource">clips/para13.flac</property>
  <property name="audio_index">0</property>
  <property name="video_index">-1</property>
  <property name="mute_on_pause">0</property>
  <property name="mlt_service">avformat-novalidate</property>
  <property name="meta.media.nb_streams">1</property>
  <property name="meta.media.0.stream.type">audio</property>
  <property name="meta.media.0.codec.sample_fmt">s16</property>
  <property name="meta.media.0.codec.sample_rate">44100</property>
  <property name="meta.media.0.codec.channels">1</property>
  <property name="meta.media.0.codec.name">flac</property>
  <property name="meta.media.0.codec.long_name">FLAC (Free Lossless Audio Codec)</property>
  <property name="meta.media.0.codec.bit_rate">0</property>
  <property name="seekable">1</property>
  <property name="kdenlive:clipname"/>
  <property name="kdenlive:folderid">12</property>
  <property name="kdenlive:id">25</property>
  <property name="kdenlive:file_size">253074</property>
  <property name="kdenlive:file_hash">df1899e67278f45153ef4510d91e680b</property>
  <property name="kdenlive:audio_max0">165</property>
  <property name="xml">was here</property>
  <property name="set.test_audio">0</property>
  <property name="set.test_image">1</property>
 </producer>
 <producer id="producer80" in="00:00:00.000" out="00:00:08.617">
  <property name="length">518</property>
  <property name="eof">pause</property>
  <property name="resource">clips/para14.flac</property>
  <property name="audio_index">0</property>
  <property name="video_index">-1</property>
  <property name="mute_on_pause">0</property>
  <property name="mlt_service">avformat-novalidate</property>
  <property name="meta.media.nb_streams">1</property>
  <property name="meta.media.0.stream.type">audio</property>
  <property name="meta.media.0.codec.sample_fmt">s16</property>
  <property name="meta.media.0.codec.sample_rate">44100</property>
  <property name="meta.media.0.codec.channels">1</property>
  <property name="meta.media.0.codec.name">flac</property>
  <property name="meta.media.0.codec.long_name">FLAC (Free Lossless Audio Codec)</property>
  <property name="meta.media.0.codec.bit_rate">0</property>
  <property name="seekable">1</property>
  <property name="kdenlive:clipname"/>
  <property name="kdenlive:folderid">12</property>
  <property name="kdenlive:id">26</property>
  <property name="kdenlive:file_size">416587</property>
  <property name="kdenlive:file_hash">65c04715613b3fa60a7c2ea5cf36e4fd</property>
  <property name="kdenlive:audio_max0">168</property>
  <property name="xml">was here</property>
  <property name="set.test_audio">0</property>
  <property name="set.test_image">1</property>
 </producer>
 <producer id="producer81" in="00:00:00.000" out="00:00:10.483">
  <property name="length">630</property>
  <property name="eof">pause</property>
  <property name="resource">clips/para15.flac</property>
  <property name="audio_index">0</property>
  <property name="video_index">-1</property>
  <property name="mute_on_pause">0</property>
  <property name="mlt_service">avformat-novalidate</property>
  <property name="meta.media.nb_streams">1</property>
  <property name="meta.media.0.stream.type">audio</property>
  <property name="meta.media.0.codec.sample_fmt">s16</property>
  <property name="meta.media.0.codec.sample_rate">44100</property>
  <property name="meta.media.0.codec.channels">1</property>
  <property name="meta.media.0.codec.name">flac</property>
  <property name="meta.media.0.codec.long_name">FLAC (Free Lossless Audio Codec)</property>
  <property name="meta.media.0.codec.bit_rate">0</property>
  <property name="seekable">1</property>
  <property name="kdenlive:clipname"/>
  <property name="kdenlive:folderid">12</property>
  <property name="kdenlive:id">27</property>
  <property name="kdenlive:file_size">510033</property>
  <property name="kdenlive:file_hash">275490b492ff7bda3d808e1610794f2c</property>
  <property name="kdenlive:audio_max0">162</property>
  <property name="xml">was here</property>
  <property name="set.test_audio">0</property>
  <property name="set.test_image">1</property>
 </producer>
 <producer id="producer82" in="00:00:00.000" out="00:00:07.967">
  <property name="length">479</property>
  <property name="eof">pause</property>
  <property name="resource">clips/para16.flac</property>
  <property name="audio_index">0</property>
  <property name="video_index">-1</property>
  <property name="mute_on_pause">0</property>
  <property name="mlt_service">avformat-novalidate</property>
  <property name="meta.media.nb_streams">1</property>
  <property name="meta.media.0.stream.type">audio</property>
  <property name="meta.media.0.codec.sample_fmt">s16</property>
  <property name="meta.media.0.codec.sample_rate">44100</property>
  <property name="meta.media.0.codec.channels">1</property>
  <property name="meta.media.0.codec.name">flac</property>
  <property name="meta.media.0.codec.long_name">FLAC (Free Lossless Audio Codec)</property>
  <property name="meta.media.0.codec.bit_rate">0</property>
  <property name="seekable">1</property>
  <property name="kdenlive:clipname"/>
  <property name="kdenlive:folderid">12</property>
  <property name="kdenlive:id">28</property>
  <property name="kdenlive:file_size">396624</property>
  <property name="kdenlive:file_hash">650c2d67d3aacb8da85819381f7d7ae3</property>
  <property name="kdenlive:audio_max0">165</property>
  <property name="xml">was here</property>
  <property name="set.test_audio">0</property>
  <property name="set.test_image">1</property>
 </producer>
 <producer id="producer83" in="00:00:00.000" out="00:00:14.000">
  <property name="length">841</property>
  <property name="eof">pause</property>
  <property name="resource">clips/para17.flac</property>
  <property name="audio_index">0</property>
  <property name="video_index">-1</property>
  <property name="mute_on_pause">0</property>
  <property name="mlt_service">avformat-novalidate</property>
  <property name="meta.media.nb_streams">1</property>
  <property name="meta.media.0.stream.type">audio</property>
  <property name="meta.media.0.codec.sample_fmt">s16</property>
  <property name="meta.media.0.codec.sample_rate">44100</property>
  <property name="meta.media.0.codec.channels">1</property>
  <property name="meta.media.0.codec.name">flac</property>
  <property name="meta.media.0.codec.long_name">FLAC (Free Lossless Audio Codec)</property>
  <property name="meta.media.0.codec.bit_rate">0</property>
  <property name="seekable">1</property>
  <property name="kdenlive:clipname"/>
  <property name="kdenlive:folderid">12</property>
  <property name="kdenlive:id">29</property>
  <property name="kdenlive:file_size">686032</property>
  <property name="kdenlive:file_hash">3c230e98ab74fafd57b7bdacdc03b7d1</property>
  <property name="kdenlive:audio_max0">165</property>
  <property name="xml">was here</property>
  <property name="set.test_audio">0</property>
  <property name="set.test_image">1</property>
 </producer>
 <producer id="producer84" in="00:00:00.000" out="00:00:09.550">
  <property name="length">574</property>
  <property name="eof">pause</property>
  <property name="resource">clips/para18.flac</property>
  <property name="audio_index">0</property>
  <property name="video_index">-1</property>
  <property name="mute_on_pause">0</property>
  <property name="mlt_service">avformat-novalidate</property>
  <property name="meta.media.nb_streams">1</property>
  <property name="meta.media.0.stream.type">audio</property>
  <property name="meta.media.0.codec.sample_fmt">s16</property>
  <property name="meta.media.0.codec.sample_rate">44100</property>
  <property name="meta.media.0.codec.channels">1</property>
  <property name="meta.media.0.codec.name">flac</property>
  <property name="meta.media.0.codec.long_name">FLAC (Free Lossless Audio Codec)</property>
  <property name="meta.media.0.codec.bit_rate">0</property>
  <property name="seekable">1</property>
  <property name="kdenlive:clipname"/>
  <property name="kdenlive:folderid">12</property>
  <property name="kdenlive:id">30</property>
  <property name="kdenlive:file_size">460687</property>
  <property name="kdenlive:file_hash">747bcd2ebb44d7f83719a30f508c2114</property>
  <property name="kdenlive:audio_max0">168</property>
  <property name="xml">was here</property>
  <property name="set.test_audio">0</property>
  <property name="set.test_image">1</property>
 </producer>
 <producer id="producer85" in="00:00:00.000" out="00:00:14.183">
  <property name="length">852</property>
  <property name="eof">pause</property>
  <property name="resource">clips/para19.flac</property>
  <property name="audio_index">0</property>
  <property name="video_index">-1</property>
  <property name="mute_on_pause">0</property>
  <property name="mlt_service">avformat-novalidate</property>
  <property name="meta.media.nb_streams">1</property>
  <property name="meta.media.0.stream.type">audio</property>
  <property name="meta.media.0.codec.sample_fmt">s16</property>
  <property name="meta.media.0.codec.sample_rate">44100</property>
  <property name="meta.media.0.codec.channels">1</property>
  <property name="meta.media.0.codec.name">flac</property>
  <property name="meta.media.0.codec.long_name">FLAC (Free Lossless Audio Codec)</property>
  <property name="meta.media.0.codec.bit_rate">0</property>
  <property name="seekable">1</property>
  <property name="kdenlive:clipname"/>
  <property name="kdenlive:folderid">12</property>
  <property name="kdenlive:id">31</property>
  <property name="kdenlive:file_size">708199</property>
  <property name="kdenlive:file_hash">abb6d50ef28e4f0a7c597c9df3454b70</property>
  <property name="kdenlive:audio_max0">162</property>
  <property name="xml">was here</property>
  <property name="set.test_audio">0</property>
  <property name="set.test_image">1</property>
 </producer>
 <producer id="producer86" in="00:00:00.000" out="00:00:04.017">
  <property name="length">242</property>
  <property name="eof">pause</property>
  <property name="resource">clips/para20.flac</property>
  <property name="audio_index">0</property>
  <property name="video_index">-1</property>
  <property name="mute_on_pause">0</property>
  <property name="mlt_service">avformat-novalidate</property>
  <property name="meta.media.nb_streams">1</property>
  <property name="meta.media.0.stream.type">audio</property>
  <property name="meta.media.0.codec.sample_fmt">s16</property>
  <property name="meta.media.0.codec.sample_rate">44100</property>
  <property name="meta.media.0.codec.channels">1</property>
  <property name="meta.media.0.codec.name">flac</property>
  <property name="meta.media.0.codec.long_name">FLAC (Free Lossless Audio Codec)</property>
  <property name="meta.media.0.codec.bit_rate">0</property>
  <property name="seekable">1</property>
  <property name="kdenlive:clipname"/>
  <property name="kdenlive:folderid">12</property>
  <property name="kdenlive:id">32</property>
  <property name="kdenlive:file_size">204399</property>
  <property name="kdenlive:file_hash">231a1ae6ccc272ef95cd6f6289c4ccca</property>
  <property name="kdenlive:audio_max0">159</property>
  <property name="xml">was here</property>
  <property name="set.test_audio">0</property>
  <property name="set.test_image">1</property>
 </producer>
 <producer id="producer87" in="00:00:00.000" out="00:00:03.783">
  <property name="length">228</property>
  <property name="eof">pause</property>
  <property name="resource">clips/para21.flac</property>
  <property name="audio_index">0</property>
  <property name="video_index">-1</property>
  <property name="mute_on_pause">0</property>
  <property name="mlt_service">avformat-novalidate</property>
  <property name="meta.media.nb_streams">1</property>
  <property name="meta.media.0.stream.type">audio</property>
  <property name="meta.media.0.codec.sample_fmt">s16</property>
  <property name="meta.media.0.codec.sample_rate">44100</property>
  <property name="meta.media.0.codec.channels">1</property>
  <property name="meta.media.0.codec.name">flac</property>
  <property name="meta.media.0.codec.long_name">FLAC (Free Lossless Audio Codec)</property>
  <property name="meta.media.0.codec.bit_rate">0</property>
  <property name="seekable">1</property>
  <property name="kdenlive:clipname"/>
  <property name="kdenlive:folderid">12</property>
  <property name="kdenlive:id">33</property>
  <property name="kdenlive:file_size">189373</property>
  <property name="kdenlive:file_hash">3fe0c4a664c0a930ad0820f44b3f5e4e</property>
  <property name="kdenlive:audio_max0">179</property>
  <property name="xml">was here</property>
  <property name="set.test_audio">0</property>
  <property name="set.test_image">1</property>
 </producer>
 <producer id="producer88" in="00:00:00.000" out="00:00:04.033">
  <property name="length">243</property>
  <property name="eof">pause</property>
  <property name="resource">clips/para22.flac</property>
  <property name="audio_index">0</property>
  <property name="video_index">-1</property>
  <property name="mute_on_pause">0</property>
  <property name="mlt_service">avformat-novalidate</property>
  <property name="meta.media.nb_streams">1</property>
  <property name="meta.media.0.stream.type">audio</property>
  <property name="meta.media.0.codec.sample_fmt">s16</property>
  <property name="meta.media.0.codec.sample_rate">44100</property>
  <property name="meta.media.0.codec.channels">1</property>
  <property name="meta.media.0.codec.name">flac</property>
  <property name="meta.media.0.codec.long_name">FLAC (Free Lossless Audio Codec)</property>
  <property name="meta.media.0.codec.bit_rate">0</property>
  <property name="seekable">1</property>
  <property name="kdenlive:clipname"/>
  <property name="kdenlive:folderid">12</property>
  <property name="kdenlive:id">34</property>
  <property name="kdenlive:file_size">203854</property>
  <property name="kdenlive:file_hash">a3ad676712696e93bb4115dc95bdd834</property>
  <property name="kdenlive:audio_max0">157</property>
  <property name="xml">was here</property>
  <property name="set.test_audio">0</property>
  <property name="set.test_image">1</property>
 </producer>
 <producer id="producer89" in="00:00:00.000" out="00:00:10.383">
  <property name="length">624</property>
  <property name="eof">pause</property>
  <property name="resource">clips/para23.flac</property>
  <property name="audio_index">0</property>
  <property name="video_index">-1</property>
  <property name="mute_on_pause">0</property>
  <property name="mlt_service">avformat-novalidate</property>
  <property name="meta.media.nb_streams">1</property>
  <property name="meta.media.0.stream.type">audio</property>
  <property name="meta.media.0.codec.sample_fmt">s16</property>
  <property name="meta.media.0.codec.sample_rate">44100</property>
  <property name="meta.media.0.codec.channels">1</property>
  <property name="meta.media.0.codec.name">flac</property>
  <property name="meta.media.0.codec.long_name">FLAC (Free Lossless Audio Codec)</property>
  <property name="meta.media.0.codec.bit_rate">0</property>
  <property name="seekable">1</property>
  <property name="kdenlive:clipname"/>
  <property name="kdenlive:folderid">12</property>
  <property name="kdenlive:id">35</property>
  <property name="kdenlive:file_size">508719</property>
  <property name="kdenlive:file_hash">0fe29dc041cac1bfbb61c31a3a346aa2</property>
  <property name="kdenlive:audio_max0">166</property>
  <property name="xml">was here</property>
  <property name="set.test_audio">0</property>
  <property name="set.test_image">1</property>
 </producer>
 <producer id="producer90" in="00:00:00.000" out="00:00:18.967">
  <property name="length">1139</property>
  <property name="eof">pause</property>
  <property name="resource">clips/para24.flac</property>
  <property name="audio_index">0</property>
  <property name="video_index">-1</property>
  <property name="mute_on_pause">0</property>
  <property name="mlt_service">avformat-novalidate</property>
  <property name="meta.media.nb_streams">1</property>
  <property name="meta.media.0.stream.type">audio</property>
  <property name="meta.media.0.codec.sample_fmt">s16</property>
  <property name="meta.media.0.codec.sample_rate">44100</property>
  <property name="meta.media.0.codec.channels">1</property>
  <property name="meta.media.0.codec.name">flac</property>
  <property name="meta.media.0.codec.long_name">FLAC (Free Lossless Audio Codec)</property>
  <property name="meta.media.0.codec.bit_rate">0</property>
  <property name="seekable">1</property>
  <property name="kdenlive:clipname"/>
  <property name="kdenlive:folderid">12</property>
  <property name="kdenlive:id">36</property>
  <property name="kdenlive:file_size">931832</property>
  <property name="kdenlive:file_hash">38f77f2654708a7a6a217f3773d37c65</property>
  <property name="kdenlive:audio_max0">166</property>
  <property name="xml">was here</property>
  <property name="set.test_audio">0</property>
  <property name="set.test_image">1</property>
 </producer>
 <producer id="producer91" in="00:00:00.000" out="00:00:04.717">
  <property name="length">284</property>
  <property name="eof">pause</property>
  <property name="resource">clips/para25.flac</property>
  <property name="audio_index">0</property>
  <property name="video_index">-1</property>
  <property name="mute_on_pause">0</property>
  <property name="mlt_service">avformat-novalidate</property>
  <property name="meta.media.nb_streams">1</property>
  <property name="meta.media.0.stream.type">audio</property>
  <property name="meta.media.0.codec.sample_fmt">s16</property>
  <property name="meta.media.0.codec.sample_rate">44100</property>
  <property name="meta.media.0.codec.channels">1</property>
  <property name="meta.media.0.codec.name">flac</property>
  <property name="meta.media.0.codec.long_name">FLAC (Free Lossless Audio Codec)</property>
  <property name="meta.media.0.codec.bit_rate">0</property>
  <property name="seekable">1</property>
  <property name="kdenlive:clipname"/>
  <property name="kdenlive:folderid">12</property>
  <property name="kdenlive:id">37</property>
  <property name="kdenlive:file_size">242364</property>
  <property name="kdenlive:file_hash">dc50861f68c494e3f2ffa7035805b70e</property>
  <property name="kdenlive:audio_max0">163</property>
  <property name="xml">was here</property>
  <property name="set.test_audio">0</property>
  <property name="set.test_image">1</property>
 </producer>
 <producer id="producer92" in="00:00:00.000" out="00:00:08.650">
  <property name="length">520</property>
  <property name="eof">pause</property>
  <property name="resource">clips/para26.flac</property>
  <property name="audio_index">0</property>
  <property name="video_index">-1</property>
  <property name="mute_on_pause">0</property>
  <property name="mlt_service">avformat-novalidate</property>
  <property name="meta.media.nb_streams">1</property>
  <property name="meta.media.0.stream.type">audio</property>
  <property name="meta.media.0.codec.sample_fmt">s16</property>
  <property name="meta.media.0.codec.sample_rate">44100</property>
  <property name="meta.media.0.codec.channels">1</property>
  <property name="meta.media.0.codec.name">flac</property>
  <property name="meta.media.0.codec.long_name">FLAC (Free Lossless Audio Codec)</property>
  <property name="meta.media.0.codec.bit_rate">0</property>
  <property name="seekable">1</property>
  <property name="kdenlive:clipname"/>
  <property name="kdenlive:folderid">12</property>
  <property name="kdenlive:id">38</property>
  <property name="kdenlive:file_size">436422</property>
  <property name="kdenlive:file_hash">492ba18e32e486762d6c48a43d28086c</property>
  <property name="kdenlive:audio_max0">165</property>
  <property name="xml">was here</property>
  <property name="set.test_audio">0</property>
  <property name="set.test_image">1</property>
 </producer>
 <producer id="producer93" in="00:00:00.000" out="00:00:05.450">
  <property name="length">328</property>
  <property name="eof">pause</property>
  <property name="resource">clips/para27.flac</property>
  <property name="audio_index">0</property>
  <property name="video_index">-1</property>
  <property name="mute_on_pause">0</property>
  <property name="mlt_service">avformat-novalidate</property>
  <property name="meta.media.nb_streams">1</property>
  <property name="meta.media.0.stream.type">audio</property>
  <property name="meta.media.0.codec.sample_fmt">s16</property>
  <property name="meta.media.0.codec.sample_rate">44100</property>
  <property name="meta.media.0.codec.channels">1</property>
  <property name="meta.media.0.codec.name">flac</property>
  <property name="meta.media.0.codec.long_name">FLAC (Free Lossless Audio Codec)</property>
  <property name="meta.media.0.codec.bit_rate">0</property>
  <property name="seekable">1</property>
  <property name="kdenlive:clipname"/>
  <property name="kdenlive:folderid">12</property>
  <property name="kdenlive:id">39</property>
  <property name="kdenlive:file_size">279089</property>
  <property name="kdenlive:file_hash">56da697d219c97ffa7f8e1187f596a00</property>
  <property name="kdenlive:audio_max0">162</property>
  <property name="xml">was here</property>
  <property name="set.test_audio">0</property>
  <property name="set.test_image">1</property>
 </producer>
 <producer id="producer94" in="00:00:00.000" out="00:00:06.767">
  <property name="length">407</property>
  <property name="eof">pause</property>
  <property name="resource">clips/para28.flac</property>
  <property name="audio_index">0</property>
  <property name="video_index">-1</property>
  <property name="mute_on_pause">0</property>
  <property name="mlt_service">avformat-novalidate</property>
  <property name="meta.media.nb_streams">1</property>
  <property name="meta.media.0.stream.type">audio</property>
  <property name="meta.media.0.codec.sample_fmt">s16</property>
  <property name="meta.media.0.codec.sample_rate">44100</property>
  <property name="meta.media.0.codec.channels">1</property>
  <property name="meta.media.0.codec.name">flac</property>
  <property name="meta.media.0.codec.long_name">FLAC (Free Lossless Audio Codec)</property>
  <property name="meta.media.0.codec.bit_rate">0</property>
  <property name="seekable">1</property>
  <property name="kdenlive:clipname"/>
  <property name="kdenlive:folderid">12</property>
  <property name="kdenlive:id">40</property>
  <property name="kdenlive:file_size">346263</property>
  <property name="kdenlive:file_hash">8921cc51df1818cb693a96a15d765002</property>
  <property name="kdenlive:audio_max0">161</property>
  <property name="xml">was here</property>
  <property name="set.test_audio">0</property>
  <property name="set.test_image">1</property>
 </producer>
 <producer id="producer95" in="00:00:00.000" out="00:00:09.200">
  <property name="length">553</property>
  <property name="eof">pause</property>
  <property name="resource">clips/para29.flac</property>
  <property name="meta.media.nb_streams">1</property>
  <property name="meta.media.0.stream.type">audio</property>
  <property name="meta.media.0.codec.sample_fmt">s16</property>
  <property name="meta.media.0.codec.sample_rate">44100</property>
  <property name="meta.media.0.codec.channels">1</property>
  <property name="meta.media.0.codec.name">flac</property>
  <property name="meta.media.0.codec.long_name">FLAC (Free Lossless Audio Codec)</property>
  <property name="meta.media.0.codec.bit_rate">0</property>
  <property name="seekable">1</property>
  <property name="audio_index">0</property>
  <property name="video_index">-1</property>
  <property name="mute_on_pause">0</property>
  <property name="mlt_service">avformat-novalidate</property>
  <property name="kdenlive:clipname"/>
  <property name="kdenlive:folderid">12</property>
  <property name="kdenlive:id">66</property>
  <property name="kdenlive:file_size">451117</property>
  <property name="kdenlive:file_hash">7da70f85b93b4bd96b4adba2b83ccc67</property>
  <property name="kdenlive:audio_max0">173</property>
  <property name="xml">was here</property>
  <property name="set.test_audio">0</property>
  <property name="set.test_image">1</property>
 </producer>
 <producer id="producer96" in="00:00:00.000" out="00:00:12.533">
  <property name="length">753</property>
  <property name="eof">pause</property>
  <property name="resource">clips/para30.flac</property>
  <property name="meta.media.nb_streams">1</property>
  <property name="meta.media.0.stream.type">audio</property>
  <property name="meta.media.0.codec.sample_fmt">s16</property>
  <property name="meta.media.0.codec.sample_rate">44100</property>
  <property name="meta.media.0.codec.channels">1</property>
  <property name="meta.media.0.codec.name">flac</property>
  <property name="meta.media.0.codec.long_name">FLAC (Free Lossless Audio Codec)</property>
  <property name="meta.media.0.codec.bit_rate">0</property>
  <property name="seekable">1</property>
  <property name="audio_index">0</property>
  <property name="video_index">-1</property>
  <property name="mute_on_pause">0</property>
  <property name="mlt_service">avformat-novalidate</property>
  <property name="kdenlive:clipname"/>
  <property name="kdenlive:folderid">12</property>
  <property name="kdenlive:id">67</property>
  <property name="kdenlive:file_size">605311</property>
  <property name="kdenlive:file_hash">2bab2ffdc3ebc0f90a9a3ed8c58c878b</property>
  <property name="kdenlive:audio_max0">175</property>
  <property name="xml">was here</property>
  <property name="set.test_audio">0</property>
  <property name="set.test_image">1</property>
 </producer>
 <producer id="producer97" in="00:00:00.000" out="00:00:06.550">
  <property name="length">394</property>
  <property name="eof">pause</property>
  <property name="resource">clips/para31.flac</property>
  <property name="meta.media.nb_streams">1</property>
  <property name="meta.media.0.stream.type">audio</property>
  <property name="meta.media.0.codec.sample_fmt">s16</property>
  <property name="meta.media.0.codec.sample_rate">44100</property>
  <property name="meta.media.0.codec.channels">1</property>
  <property name="meta.media.0.codec.name">flac</property>
  <property name="meta.media.0.codec.long_name">FLAC (Free Lossless Audio Codec)</property>
  <property name="meta.media.0.codec.bit_rate">0</property>
  <property name="seekable">1</property>
  <property name="audio_index">0</property>
  <property name="video_index">-1</property>
  <property name="mute_on_pause">0</property>
  <property name="mlt_service">avformat-novalidate</property>
  <property name="kdenlive:clipname"/>
  <property name="kdenlive:folderid">12</property>
  <property name="kdenlive:id">68</property>
  <property name="kdenlive:file_size">327313</property>
  <property name="kdenlive:file_hash">33642d7de0be5fc374f1430644173a2a</property>
  <property name="kdenlive:audio_max0">171</property>
  <property name="xml">was here</property>
  <property name="set.test_audio">0</property>
  <property name="set.test_image">1</property>
 </producer>
 <playlist id="playlist2">
  <property name="kdenlive:audio_track">1</property>
  <entry producer="producer67" in="00:00:00.000" out="00:00:13.317">
   <property name="kdenlive:id">13</property>
  </entry>
  <entry producer="producer68" in="00:00:00.000" out="00:00:23.783">
   <property name="kdenlive:id">14</property>
  </entry>
  <entry producer="producer69" in="00:00:00.000" out="00:00:18.767">
   <property name="kdenlive:id">15</property>
  </entry>
  <entry producer="producer70" in="00:00:00.000" out="00:00:15.233">
   <property name="kdenlive:id">16</property>
  </entry>
  <entry producer="producer71" in="00:00:00.000" out="00:00:09.767">
   <property name="kdenlive:id">17</property>
  </entry>
  <blank length="00:00:00.167"/>
  <entry producer="producer72" in="00:00:00.000" out="00:00:12.250">
   <property name="kdenlive:id">18</property>
  </entry>
  <blank length="00:00:00.183"/>
  <entry producer="producer73" in="00:00:00.000" out="00:00:05.850">
   <property name="kdenlive:id">19</property>
  </entry>
  <blank length="00:00:00.117"/>
  <entry producer="producer74" in="00:00:00.000" out="00:00:19.517">
   <property name="kdenlive:id">20</property>
  </entry>
  <blank length="00:00:00.100"/>
  <entry producer="producer75" in="00:00:00.000" out="00:00:09.900">
   <property name="kdenlive:id">21</property>
  </entry>
  <blank length="00:00:00.200"/>
  <entry producer="producer76" in="00:00:00.000" out="00:00:03.500">
   <property name="kdenlive:id">22</property>
  </entry>
  <blank length="00:00:00.183"/>
  <entry producer="producer77" in="00:00:00.000" out="00:00:23.033">
   <property name="kdenlive:id">23</property>
  </entry>
  <blank length="00:00:01.000"/>
  <entry producer="producer78" in="00:00:00.000" out="00:00:12.550">
   <property name="kdenlive:id">24</property>
  </entry>
  <blank length="00:00:00.133"/>
  <entry producer="producer79" in="00:00:00.000" out="00:00:05.117">
   <property name="kdenlive:id">25</property>
  </entry>
  <blank length="00:00:00.083"/>
  <entry producer="producer80" in="00:00:00.000" out="00:00:08.617">
   <property name="kdenlive:id">26</property>
  </entry>
  <entry producer="producer81" in="00:00:00.000" out="00:00:10.483">
   <property name="kdenlive:id">27</property>
  </entry>
  <blank length="00:00:00.117"/>
  <entry producer="producer82" in="00:00:00.000" out="00:00:07.967">
   <property name="kdenlive:id">28</property>
  </entry>
  <blank length="00:00:00.233"/>
  <entry producer="producer83" in="00:00:00.000" out="00:00:14.000">
   <property name="kdenlive:id">29</property>
  </entry>
  <blank length="00:00:00.117"/>
  <entry producer="producer84" in="00:00:00.000" out="00:00:09.550">
   <property name="kdenlive:id">30</property>
  </entry>
  <blank length="00:00:00.200"/>
  <entry producer="producer85" in="00:00:00.000" out="00:00:14.183">
   <property name="kdenlive:id">31</property>
  </entry>
  <blank length="00:00:00.283"/>
  <entry producer="producer86" in="00:00:00.000" out="00:00:04.017">
   <property name="kdenlive:id">32</property>
  </entry>
  <blank length="00:00:00.133"/>
  <entry producer="producer87" in="00:00:00.000" out="00:00:03.783">
   <property name="kdenlive:id">33</property>
  </entry>
  <blank length="00:00:00.167"/>
  <entry producer="producer88" in="00:00:00.000" out="00:00:04.033">
   <property name="kdenlive:id">34</property>
  </entry>
  <blank length="00:00:00.383"/>
  <entry producer="producer89" in="00:00:00.000" out="00:00:10.383">
   <property name="kdenlive:id">35</property>
  </entry>
  <entry producer="producer90" in="00:00:00.000" out="00:00:18.967">
   <property name="kdenlive:id">36</property>
  </entry>
  <blank length="00:00:00.150"/>
  <entry producer="producer91" in="00:00:00.000" out="00:00:04.717">
   <property name="kdenlive:id">37</property>
  </entry>
  <blank length="00:00:00.267"/>
  <entry producer="producer92" in="00:00:00.000" out="00:00:08.650">
   <property name="kdenlive:id">38</property>
  </entry>
  <blank length="00:00:00.217"/>
  <entry producer="producer93" in="00:00:00.000" out="00:00:05.450">
   <property name="kdenlive:id">39</property>
  </entry>
  <blank length="00:00:00.167"/>
  <entry producer="producer94" in="00:00:00.000" out="00:00:06.767">
   <property name="kdenlive:id">40</property>
  </entry>
  <blank length="00:00:01.167"/>
  <entry producer="producer95" in="00:00:00.000" out="00:00:09.200">
   <property name="kdenlive:id">66</property>
  </entry>
  <blank length="00:00:00.267"/>
  <entry producer="producer96" in="00:00:00.000" out="00:00:12.533">
   <property name="kdenlive:id">67</property>
  </entry>
  <blank length="00:00:00.217"/>
  <entry producer="producer97" in="00:00:00.000" out="00:00:06.550">
   <property name="kdenlive:id">68</property>
  </entry>
 </playlist>
 <playlist id="playlist3">
  <property name="kdenlive:audio_track">1</property>
 </playlist>
 <tractor id="tractor1" in="00:00:00.000" out="00:05:39.183">
  <property name="kdenlive:audio_track">1</property>
  <property name="kdenlive:trackheight">85</property>
  <property name="kdenlive:timeline_active">1</property>
  <property name="kdenlive:collapsed">0</property>
  <property name="kdenlive:thumbs_format"/>
  <property name="kdenlive:audio_rec"/>
  <track hide="video" producer="playlist2"/>
  <track hide="video" producer="playlist3"/>
  <filter id="filter3">
   <property name="window">75</property>
   <property name="max_gain">20dB</property>
   <property name="mlt_service">volume</property>
   <property name="internal_added">237</property>
   <property name="disable">1</property>
  </filter>
  <filter id="filter4">
   <property name="channel">-1</property>
   <property name="mlt_service">panner</property>
   <property name="internal_added">237</property>
   <property name="start">0.5</property>
   <property name="disable">1</property>
  </filter>
  <filter id="filter5">
   <property name="iec_scale">0</property>
   <property name="mlt_service">audiolevel</property>
   <property name="disable">1</property>
  </filter>
 </tractor>
 <producer id="producer98" in="00:00:00.000" out="00:00:19.483">
  <property name="length">1170</property>
  <property name="eof">pause</property>
  <property name="resource">media/videos/scene/1080p60/GroupDef.mp4</property>
  <property name="audio_index">-1</property>
  <property name="video_index">0</property>
  <property name="mute_on_pause">0</property>
  <property name="mlt_service">avformat-novalidate</property>
  <property name="seekable">1</property>
  <property name="aspect_ratio">1</property>
  <property name="kdenlive:clipname"/>
  <property name="kdenlive:folderid">11</property>
  <property name="kdenlive:file_size">843203</property>
  <property name="kdenlive:id">6</property>
  <property name="kdenlive:file_hash">c72b591d3a3de36629006aa84d372917</property>
  <property name="xml">was here</property>
  <property name="meta.media.nb_streams">1</property>
  <property name="meta.media.0.stream.type">video</property>
  <property name="meta.media.0.stream.frame_rate">60</property>
  <property name="meta.media.0.stream.sample_aspect_ratio">0</property>
  <property name="meta.media.0.codec.width">1920</property>
  <property name="meta.media.0.codec.height">1080</property>
  <property name="meta.media.0.codec.rotate">0</property>
  <property name="meta.media.0.codec.frame_rate">60</property>
  <property name="meta.media.0.codec.pix_fmt">yuv420p</property>
  <property name="meta.media.0.codec.sample_aspect_ratio">0</property>
  <property name="meta.media.0.codec.colorspace">709</property>
  <property name="meta.media.0.codec.name">h264</property>
  <property name="meta.media.0.codec.long_name">H.264 / AVC / MPEG-4 AVC / MPEG-4 part 10</property>
  <property name="meta.media.0.codec.bit_rate">339839</property>
  <property name="meta.attr.0.stream.handler_name.markup">VideoHandler</property>
  <property name="meta.attr.0.stream.vendor_id.markup">[0][0][0][0]</property>
  <property name="meta.attr.major_brand.markup">isom</property>
  <property name="meta.attr.minor_version.markup">512</property>
  <property name="meta.attr.compatible_brands.markup">isomiso2avc1mp41</property>
  <property name="meta.attr.encoder.markup">Lavf58.76.100</property>
  <property name="meta.attr.comment.markup">Rendered with Manim Community v0.9.0</property>
  <property name="meta.media.sample_aspect_num">1</property>
  <property name="meta.media.sample_aspect_den">1</property>
  <property name="meta.media.frame_rate_num">60</property>
  <property name="meta.media.frame_rate_den">1</property>
  <property name="meta.media.colorspace">709</property>
  <property name="meta.media.color_trc">2</property>
  <property name="meta.media.has_b_frames">2</property>
  <property name="meta.media.width">1920</property>
  <property name="meta.media.height">1080</property>
  <property name="meta.media.color_range">mpeg</property>
  <property name="meta.media.top_field_first">0</property>
  <property name="meta.media.progressive">1</property>
  <property name="set.test_audio">1</property>
  <property name="set.test_image">0</property>
 </producer>
 <producer id="producer99" in="00:00:00.000" out="00:00:35.983">
  <property name="length">2160</property>
  <property name="eof">pause</property>
  <property name="resource">media/videos/scene/1080p60/OmegaDef.mp4</property>
  <property name="audio_index">-1</property>
  <property name="video_index">0</property>
  <property name="mute_on_pause">0</property>
  <property name="mlt_service">avformat-novalidate</property>
  <property name="seekable">1</property>
  <property name="aspect_ratio">1</property>
  <property name="kdenlive:clipname"/>
  <property name="kdenlive:folderid">11</property>
  <property name="kdenlive:id">9</property>
  <property name="kdenlive:file_size">1320818</property>
  <property name="kdenlive:file_hash">016a73fed3648d4b287bd62b197fd3f5</property>
  <property name="xml">was here</property>
  <property name="meta.media.nb_streams">1</property>
  <property name="meta.media.0.stream.type">video</property>
  <property name="meta.media.0.stream.frame_rate">60</property>
  <property name="meta.media.0.stream.sample_aspect_ratio">0</property>
  <property name="meta.media.0.codec.width">1920</property>
  <property name="meta.media.0.codec.height">1080</property>
  <property name="meta.media.0.codec.rotate">0</property>
  <property name="meta.media.0.codec.frame_rate">60</property>
  <property name="meta.media.0.codec.pix_fmt">yuv420p</property>
  <property name="meta.media.0.codec.sample_aspect_ratio">0</property>
  <property name="meta.media.0.codec.colorspace">709</property>
  <property name="meta.media.0.codec.name">h264</property>
  <property name="meta.media.0.codec.long_name">H.264 / AVC / MPEG-4 AVC / MPEG-4 part 10</property>
  <property name="meta.media.0.codec.bit_rate">287723</property>
  <property name="meta.attr.0.stream.handler_name.markup">VideoHandler</property>
  <property name="meta.attr.0.stream.vendor_id.markup">[0][0][0][0]</property>
  <property name="meta.attr.major_brand.markup">isom</property>
  <property name="meta.attr.minor_version.markup">512</property>
  <property name="meta.attr.compatible_brands.markup">isomiso2avc1mp41</property>
  <property name="meta.attr.encoder.markup">Lavf58.76.100</property>
  <property name="meta.attr.comment.markup">Rendered with Manim Community v0.9.0</property>
  <property name="meta.media.sample_aspect_num">1</property>
  <property name="meta.media.sample_aspect_den">1</property>
  <property name="meta.media.frame_rate_num">60</property>
  <property name="meta.media.frame_rate_den">1</property>
  <property name="meta.media.colorspace">709</property>
  <property name="meta.media.color_trc">2</property>
  <property name="meta.media.has_b_frames">2</property>
  <property name="meta.media.width">1920</property>
  <property name="meta.media.height">1080</property>
  <property name="meta.media.color_range">mpeg</property>
  <property name="set.test_audio">1</property>
  <property name="set.test_image">0</property>
  <property name="meta.media.top_field_first">0</property>
  <property name="meta.media.progressive">1</property>
 </producer>
 <producer id="producer100" in="00:00:00.000" out="00:00:10.483">
  <property name="length">630</property>
  <property name="eof">pause</property>
  <property name="resource">media/videos/scene/1080p60/Generators.mp4</property>
  <property name="audio_index">-1</property>
  <property name="video_index">0</property>
  <property name="mute_on_pause">0</property>
  <property name="mlt_service">avformat-novalidate</property>
  <property name="seekable">1</property>
  <property name="aspect_ratio">1</property>
  <property name="kdenlive:clipname"/>
  <property name="kdenlive:folderid">11</property>
  <property name="kdenlive:id">5</property>
  <property name="kdenlive:file_size">288491</property>
  <property name="kdenlive:file_hash">3f094c0e119f4d49767baa4fad378309</property>
  <property name="xml">was here</property>
  <property name="meta.media.nb_streams">1</property>
  <property name="meta.media.0.stream.type">video</property>
  <property name="meta.media.0.stream.frame_rate">60</property>
  <property name="meta.media.0.stream.sample_aspect_ratio">0</property>
  <property name="meta.media.0.codec.width">1920</property>
  <property name="meta.media.0.codec.height">1080</property>
  <property name="meta.media.0.codec.rotate">0</property>
  <property name="meta.media.0.codec.frame_rate">60</property>
  <property name="meta.media.0.codec.pix_fmt">yuv420p</property>
  <property name="meta.media.0.codec.sample_aspect_ratio">0</property>
  <property name="meta.media.0.codec.colorspace">709</property>
  <property name="meta.media.0.codec.name">h264</property>
  <property name="meta.media.0.codec.long_name">H.264 / AVC / MPEG-4 AVC / MPEG-4 part 10</property>
  <property name="meta.media.0.codec.bit_rate">213393</property>
  <property name="meta.attr.0.stream.handler_name.markup">VideoHandler</property>
  <property name="meta.attr.0.stream.vendor_id.markup">[0][0][0][0]</property>
  <property name="meta.attr.major_brand.markup">isom</property>
  <property name="meta.attr.minor_version.markup">512</property>
  <property name="meta.attr.compatible_brands.markup">isomiso2avc1mp41</property>
  <property name="meta.attr.encoder.markup">Lavf58.76.100</property>
  <property name="meta.attr.comment.markup">Rendered with Manim Community v0.9.0</property>
  <property name="meta.media.sample_aspect_num">1</property>
  <property name="meta.media.sample_aspect_den">1</property>
  <property name="meta.media.frame_rate_num">60</property>
  <property name="meta.media.frame_rate_den">1</property>
  <property name="meta.media.colorspace">709</property>
  <property name="meta.media.color_trc">2</property>
  <property name="meta.media.has_b_frames">2</property>
  <property name="meta.media.width">1920</property>
  <property name="meta.media.height">1080</property>
  <property name="meta.media.color_range">mpeg</property>
  <property name="meta.media.top_field_first">0</property>
  <property name="meta.media.progressive">1</property>
  <property name="set.test_audio">1</property>
  <property name="set.test_image">0</property>
 </producer>
 <producer id="producer101" in="00:00:00.000" out="00:00:06.483">
  <property name="length">390</property>
  <property name="eof">pause</property>
  <property name="resource">media/videos/scene/1080p60/ERGraph.mp4</property>
  <property name="audio_index">-1</property>
  <property name="video_index">0</property>
  <property name="mute_on_pause">0</property>
  <property name="mlt_service">avformat-novalidate</property>
  <property name="seekable">1</property>
  <property name="aspect_ratio">1</property>
  <property name="kdenlive:clipname"/>
  <property name="kdenlive:file_size">195333</property>
  <property name="kdenlive:folderid">11</property>
  <property name="kdenlive:id">4</property>
  <property name="kdenlive:file_hash">1256151ee317ead71b90c5043cb4d3e2</property>
  <property name="xml">was here</property>
  <property name="meta.media.nb_streams">1</property>
  <property name="meta.media.0.stream.type">video</property>
  <property name="meta.media.0.stream.frame_rate">60</property>
  <property name="meta.media.0.stream.sample_aspect_ratio">0</property>
  <property name="meta.media.0.codec.width">1920</property>
  <property name="meta.media.0.codec.height">1080</property>
  <property name="meta.media.0.codec.rotate">0</property>
  <property name="meta.media.0.codec.frame_rate">60</property>
  <property name="meta.media.0.codec.pix_fmt">yuv420p</property>
  <property name="meta.media.0.codec.sample_aspect_ratio">0</property>
  <property name="meta.media.0.codec.colorspace">709</property>
  <property name="meta.media.0.codec.name">h264</property>
  <property name="meta.media.0.codec.long_name">H.264 / AVC / MPEG-4 AVC / MPEG-4 part 10</property>
  <property name="meta.media.0.codec.bit_rate">233556</property>
  <property name="meta.attr.0.stream.handler_name.markup">VideoHandler</property>
  <property name="meta.attr.0.stream.vendor_id.markup">[0][0][0][0]</property>
  <property name="meta.attr.major_brand.markup">isom</property>
  <property name="meta.attr.minor_version.markup">512</property>
  <property name="meta.attr.compatible_brands.markup">isomiso2avc1mp41</property>
  <property name="meta.attr.encoder.markup">Lavf58.76.100</property>
  <property name="meta.attr.comment.markup">Rendered with Manim Community v0.9.0</property>
  <property name="meta.media.sample_aspect_num">1</property>
  <property name="meta.media.sample_aspect_den">1</property>
  <property name="meta.media.frame_rate_num">60</property>
  <property name="meta.media.frame_rate_den">1</property>
  <property name="meta.media.colorspace">709</property>
  <property name="meta.media.color_trc">2</property>
  <property name="meta.media.has_b_frames">2</property>
  <property name="meta.media.width">1920</property>
  <property name="meta.media.height">1080</property>
  <property name="meta.media.color_range">mpeg</property>
  <property name="meta.media.top_field_first">0</property>
  <property name="meta.media.progressive">1</property>
  <property name="set.test_audio">1</property>
  <property name="set.test_image">0</property>
 </producer>
 <producer id="producer102" in="00:00:00.000" out="00:00:24.983">
  <property name="length">1500</property>
  <property name="eof">pause</property>
  <property name="resource">media/videos/scene/1080p60/EmpiricalDist.mp4</property>
  <property name="audio_index">-1</property>
  <property name="video_index">0</property>
  <property name="mute_on_pause">0</property>
  <property name="mlt_service">avformat-novalidate</property>
  <property name="seekable">1</property>
  <property name="aspect_ratio">1</property>
  <property name="kdenlive:clipname"/>
  <property name="kdenlive:folderid">11</property>
  <property name="kdenlive:id">3</property>
  <property name="kdenlive:file_size">795325</property>
  <property name="kdenlive:file_hash">22977438c5d7777dc466ca0e5367b164</property>
  <property name="xml">was here</property>
  <property name="meta.media.nb_streams">1</property>
  <property name="meta.media.0.stream.type">video</property>
  <property name="meta.media.0.stream.frame_rate">60</property>
  <property name="meta.media.0.stream.sample_aspect_ratio">0</property>
  <property name="meta.media.0.codec.width">1920</property>
  <property name="meta.media.0.codec.height">1080</property>
  <property name="meta.media.0.codec.rotate">0</property>
  <property name="meta.media.0.codec.frame_rate">60</property>
  <property name="meta.media.0.codec.pix_fmt">yuv420p</property>
  <property name="meta.media.0.codec.sample_aspect_ratio">0</property>
  <property name="meta.media.0.codec.colorspace">709</property>
  <property name="meta.media.0.codec.name">h264</property>
  <property name="meta.media.0.codec.long_name">H.264 / AVC / MPEG-4 AVC / MPEG-4 part 10</property>
  <property name="meta.media.0.codec.bit_rate">248539</property>
  <property name="meta.attr.0.stream.handler_name.markup">VideoHandler</property>
  <property name="meta.attr.0.stream.vendor_id.markup">[0][0][0][0]</property>
  <property name="meta.attr.major_brand.markup">isom</property>
  <property name="meta.attr.minor_version.markup">512</property>
  <property name="meta.attr.compatible_brands.markup">isomiso2avc1mp41</property>
  <property name="meta.attr.encoder.markup">Lavf58.76.100</property>
  <property name="meta.attr.comment.markup">Rendered with Manim Community v0.9.0</property>
  <property name="meta.media.sample_aspect_num">1</property>
  <property name="meta.media.sample_aspect_den">1</property>
  <property name="meta.media.frame_rate_num">60</property>
  <property name="meta.media.frame_rate_den">1</property>
  <property name="meta.media.colorspace">709</property>
  <property name="meta.media.color_trc">2</property>
  <property name="meta.media.has_b_frames">2</property>
  <property name="meta.media.width">1920</property>
  <property name="meta.media.height">1080</property>
  <property name="meta.media.color_range">mpeg</property>
  <property name="set.test_audio">1</property>
  <property name="set.test_image">0</property>
  <property name="meta.media.top_field_first">0</property>
  <property name="meta.media.progressive">1</property>
 </producer>
 <producer id="producer103" in="00:00:00.000" out="00:00:10.483">
  <property name="length">630</property>
  <property name="eof">pause</property>
  <property name="resource">media/videos/scene/1080p60/SmallDensities.mp4</property>
  <property name="audio_index">-1</property>
  <property name="video_index">0</property>
  <property name="mute_on_pause">0</property>
  <property name="mlt_service">avformat-novalidate</property>
  <property name="seekable">1</property>
  <property name="aspect_ratio">1</property>
  <property name="kdenlive:clipname"/>
  <property name="kdenlive:file_size">282205</property>
  <property name="kdenlive:folderid">11</property>
  <property name="kdenlive:id">10</property>
  <property name="kdenlive:file_hash">da83be673831f56edea16b31d17fde28</property>
  <property name="xml">was here</property>
  <property name="meta.media.nb_streams">1</property>
  <property name="meta.media.0.stream.type">video</property>
  <property name="meta.media.0.stream.frame_rate">60</property>
  <property name="meta.media.0.stream.sample_aspect_ratio">0</property>
  <property name="meta.media.0.codec.width">1920</property>
  <property name="meta.media.0.codec.height">1080</property>
  <property name="meta.media.0.codec.rotate">0</property>
  <property name="meta.media.0.codec.frame_rate">60</property>
  <property name="meta.media.0.codec.pix_fmt">yuv420p</property>
  <property name="meta.media.0.codec.sample_aspect_ratio">0</property>
  <property name="meta.media.0.codec.colorspace">709</property>
  <property name="meta.media.0.codec.name">h264</property>
  <property name="meta.media.0.codec.long_name">H.264 / AVC / MPEG-4 AVC / MPEG-4 part 10</property>
  <property name="meta.media.0.codec.bit_rate">208622</property>
  <property name="meta.attr.0.stream.handler_name.markup">VideoHandler</property>
  <property name="meta.attr.0.stream.vendor_id.markup">[0][0][0][0]</property>
  <property name="meta.attr.major_brand.markup">isom</property>
  <property name="meta.attr.minor_version.markup">512</property>
  <property name="meta.attr.compatible_brands.markup">isomiso2avc1mp41</property>
  <property name="meta.attr.encoder.markup">Lavf58.76.100</property>
  <property name="meta.attr.comment.markup">Rendered with Manim Community v0.9.0</property>
  <property name="meta.media.sample_aspect_num">1</property>
  <property name="meta.media.sample_aspect_den">1</property>
  <property name="meta.media.frame_rate_num">60</property>
  <property name="meta.media.frame_rate_den">1</property>
  <property name="meta.media.colorspace">709</property>
  <property name="meta.media.color_trc">2</property>
  <property name="meta.media.has_b_frames">2</property>
  <property name="meta.media.width">1920</property>
  <property name="meta.media.height">1080</property>
  <property name="meta.media.color_range">mpeg</property>
  <property name="meta.media.top_field_first">0</property>
  <property name="meta.media.progressive">1</property>
  <property name="set.test_audio">1</property>
  <property name="set.test_image">0</property>
 </producer>
 <producer id="producer104" in="00:00:00.000" out="00:00:28.983">
  <property name="length">1740</property>
  <property name="eof">pause</property>
  <property name="resource">media/videos/scene/1080p60/LargeDensities.mp4</property>
  <property name="audio_index">-1</property>
  <property name="video_index">0</property>
  <property name="mute_on_pause">0</property>
  <property name="mlt_service">avformat-novalidate</property>
  <property name="seekable">1</property>
  <property name="aspect_ratio">1</property>
  <property name="kdenlive:clipname"/>
  <property name="kdenlive:folderid">11</property>
  <property name="kdenlive:id">8</property>
  <property name="kdenlive:file_size">753633</property>
  <property name="kdenlive:file_hash">02444e7f33cc7e56071936fb51002399</property>
  <property name="xml">was here</property>
  <property name="meta.media.nb_streams">1</property>
  <property name="meta.media.0.stream.type">video</property>
  <property name="meta.media.0.stream.frame_rate">60</property>
  <property name="meta.media.0.stream.sample_aspect_ratio">0</property>
  <property name="meta.media.0.codec.width">1920</property>
  <property name="meta.media.0.codec.height">1080</property>
  <property name="meta.media.0.codec.rotate">0</property>
  <property name="meta.media.0.codec.frame_rate">60</property>
  <property name="meta.media.0.codec.pix_fmt">yuv420p</property>
  <property name="meta.media.0.codec.sample_aspect_ratio">0</property>
  <property name="meta.media.0.codec.colorspace">709</property>
  <property name="meta.media.0.codec.name">h264</property>
  <property name="meta.media.0.codec.long_name">H.264 / AVC / MPEG-4 AVC / MPEG-4 part 10</property>
  <property name="meta.media.0.codec.bit_rate">201958</property>
  <property name="meta.attr.0.stream.handler_name.markup">VideoHandler</property>
  <property name="meta.attr.0.stream.vendor_id.markup">[0][0][0][0]</property>
  <property name="meta.attr.major_brand.markup">isom</property>
  <property name="meta.attr.minor_version.markup">512</property>
  <property name="meta.attr.compatible_brands.markup">isomiso2avc1mp41</property>
  <property name="meta.attr.encoder.markup">Lavf58.76.100</property>
  <property name="meta.attr.comment.markup">Rendered with Manim Community v0.9.0</property>
  <property name="meta.media.sample_aspect_num">1</property>
  <property name="meta.media.sample_aspect_den">1</property>
  <property name="meta.media.frame_rate_num">60</property>
  <property name="meta.media.frame_rate_den">1</property>
  <property name="meta.media.colorspace">709</property>
  <property name="meta.media.color_trc">2</property>
  <property name="meta.media.has_b_frames">2</property>
  <property name="meta.media.width">1920</property>
  <property name="meta.media.height">1080</property>
  <property name="meta.media.color_range">mpeg</property>
  <property name="set.test_audio">1</property>
  <property name="set.test_image">0</property>
  <property name="meta.media.top_field_first">0</property>
  <property name="meta.media.progressive">1</property>
 </producer>
 <producer id="producer105" in="00:00:00.000" out="00:00:10.983">
  <property name="length">660</property>
  <property name="eof">pause</property>
  <property name="resource">media/videos/scene/1080p60/CycleReduction.mp4</property>
  <property name="audio_index">-1</property>
  <property name="video_index">0</property>
  <property name="mute_on_pause">0</property>
  <property name="mlt_service">avformat-novalidate</property>
  <property name="seekable">1</property>
  <property name="aspect_ratio">1</property>
  <property name="kdenlive:clipname"/>
  <property name="kdenlive:folderid">11</property>
  <property name="kdenlive:id">2</property>
  <property name="kdenlive:file_size">271031</property>
  <property name="kdenlive:file_hash">e896236d1c6d7de4a5425789f08087d8</property>
  <property name="xml">was here</property>
  <property name="meta.media.nb_streams">1</property>
  <property name="meta.media.0.stream.type">video</property>
  <property name="meta.media.0.stream.frame_rate">60</property>
  <property name="meta.media.0.stream.sample_aspect_ratio">0</property>
  <property name="meta.media.0.codec.width">1920</property>
  <property name="meta.media.0.codec.height">1080</property>
  <property name="meta.media.0.codec.rotate">0</property>
  <property name="meta.media.0.codec.frame_rate">60</property>
  <property name="meta.media.0.codec.pix_fmt">yuv420p</property>
  <property name="meta.media.0.codec.sample_aspect_ratio">0</property>
  <property name="meta.media.0.codec.colorspace">709</property>
  <property name="meta.media.0.codec.name">h264</property>
  <property name="meta.media.0.codec.long_name">H.264 / AVC / MPEG-4 AVC / MPEG-4 part 10</property>
  <property name="meta.media.0.codec.bit_rate">167285</property>
  <property name="meta.attr.0.stream.handler_name.markup">VideoHandler</property>
  <property name="meta.attr.0.stream.vendor_id.markup">[0][0][0][0]</property>
  <property name="meta.attr.major_brand.markup">isom</property>
  <property name="meta.attr.minor_version.markup">512</property>
  <property name="meta.attr.compatible_brands.markup">isomiso2avc1mp41</property>
  <property name="meta.attr.encoder.markup">Lavf58.76.100</property>
  <property name="meta.attr.comment.markup">Rendered with Manim Community v0.9.0</property>
  <property name="meta.media.sample_aspect_num">1</property>
  <property name="meta.media.sample_aspect_den">1</property>
  <property name="meta.media.frame_rate_num">60</property>
  <property name="meta.media.frame_rate_den">1</property>
  <property name="meta.media.colorspace">709</property>
  <property name="meta.media.color_trc">2</property>
  <property name="meta.media.has_b_frames">2</property>
  <property name="meta.media.width">1920</property>
  <property name="meta.media.height">1080</property>
  <property name="meta.media.color_range">mpeg</property>
  <property name="meta.media.top_field_first">0</property>
  <property name="meta.media.progressive">1</property>
  <property name="set.test_audio">1</property>
  <property name="set.test_image">0</property>
 </producer>
 <producer id="producer106" in="00:00:00.000" out="00:00:07.483">
  <property name="length">450</property>
  <property name="eof">pause</property>
  <property name="resource">media/videos/scene/1080p60/QuickBound.mp4</property>
  <property name="audio_index">-1</property>
  <property name="video_index">0</property>
  <property name="mute_on_pause">0</property>
  <property name="mlt_service">avformat-novalidate</property>
  <property name="seekable">1</property>
  <property name="aspect_ratio">1</property>
  <property name="kdenlive:clipname"/>
  <property name="kdenlive:folderid">11</property>
  <property name="kdenlive:id">65</property>
  <property name="kdenlive:file_size">187146</property>
  <property name="kdenlive:file_hash">ed252572fd00c0cac5eea8f200cac322</property>
  <property name="xml">was here</property>
  <property name="meta.media.nb_streams">1</property>
  <property name="meta.media.0.stream.type">video</property>
  <property name="meta.media.0.stream.frame_rate">60</property>
  <property name="meta.media.0.stream.sample_aspect_ratio">0</property>
  <property name="meta.media.0.codec.width">1920</property>
  <property name="meta.media.0.codec.height">1080</property>
  <property name="meta.media.0.codec.rotate">0</property>
  <property name="meta.media.0.codec.frame_rate">60</property>
  <property name="meta.media.0.codec.pix_fmt">yuv420p</property>
  <property name="meta.media.0.codec.sample_aspect_ratio">0</property>
  <property name="meta.media.0.codec.colorspace">709</property>
  <property name="meta.media.0.codec.name">h264</property>
  <property name="meta.media.0.codec.long_name">H.264 / AVC / MPEG-4 AVC / MPEG-4 part 10</property>
  <property name="meta.media.0.codec.bit_rate">192898</property>
  <property name="meta.attr.0.stream.handler_name.markup">VideoHandler</property>
  <property name="meta.attr.0.stream.vendor_id.markup">[0][0][0][0]</property>
  <property name="meta.attr.major_brand.markup">isom</property>
  <property name="meta.attr.minor_version.markup">512</property>
  <property name="meta.attr.compatible_brands.markup">isomiso2avc1mp41</property>
  <property name="meta.attr.encoder.markup">Lavf58.76.100</property>
  <property name="meta.attr.comment.markup">Rendered with Manim Community v0.9.0</property>
  <property name="meta.media.sample_aspect_num">1</property>
  <property name="meta.media.sample_aspect_den">1</property>
  <property name="meta.media.frame_rate_num">60</property>
  <property name="meta.media.frame_rate_den">1</property>
  <property name="meta.media.colorspace">709</property>
  <property name="meta.media.color_trc">2</property>
  <property name="meta.media.has_b_frames">2</property>
  <property name="meta.media.width">1920</property>
  <property name="meta.media.height">1080</property>
  <property name="meta.media.color_range">mpeg</property>
  <property name="meta.media.top_field_first">0</property>
  <property name="meta.media.progressive">1</property>
  <property name="set.test_audio">1</property>
  <property name="set.test_image">0</property>
 </producer>
 <producer id="producer107" in="00:00:00.000" out="00:00:08.983">
  <property name="length">540</property>
  <property name="eof">pause</property>
  <property name="resource">media/videos/scene/1080p60/Conclusion.mp4</property>
  <property name="audio_index">-1</property>
  <property name="video_index">0</property>
  <property name="mute_on_pause">0</property>
  <property name="mlt_service">avformat-novalidate</property>
  <property name="seekable">1</property>
  <property name="aspect_ratio">1</property>
  <property name="kdenlive:clipname"/>
  <property name="kdenlive:folderid">11</property>
  <property name="kdenlive:id">64</property>
  <property name="kdenlive:file_size">493281</property>
  <property name="kdenlive:file_hash">0e8a6a48ab272bea5ae7f9ffab0f24f4</property>
  <property name="xml">was here</property>
  <property name="meta.media.nb_streams">1</property>
  <property name="meta.media.0.stream.type">video</property>
  <property name="meta.media.0.stream.frame_rate">60</property>
  <property name="meta.media.0.stream.sample_aspect_ratio">0</property>
  <property name="meta.media.0.codec.width">1920</property>
  <property name="meta.media.0.codec.height">1080</property>
  <property name="meta.media.0.codec.rotate">0</property>
  <property name="meta.media.0.codec.frame_rate">60</property>
  <property name="meta.media.0.codec.pix_fmt">yuv420p</property>
  <property name="meta.media.0.codec.sample_aspect_ratio">0</property>
  <property name="meta.media.0.codec.colorspace">709</property>
  <property name="meta.media.0.codec.name">h264</property>
  <property name="meta.media.0.codec.long_name">H.264 / AVC / MPEG-4 AVC / MPEG-4 part 10</property>
  <property name="meta.media.0.codec.bit_rate">431990</property>
  <property name="meta.attr.0.stream.handler_name.markup">VideoHandler</property>
  <property name="meta.attr.0.stream.vendor_id.markup">[0][0][0][0]</property>
  <property name="meta.attr.major_brand.markup">isom</property>
  <property name="meta.attr.minor_version.markup">512</property>
  <property name="meta.attr.compatible_brands.markup">isomiso2avc1mp41</property>
  <property name="meta.attr.encoder.markup">Lavf58.76.100</property>
  <property name="meta.attr.comment.markup">Rendered with Manim Community v0.9.0</property>
  <property name="meta.media.sample_aspect_num">1</property>
  <property name="meta.media.sample_aspect_den">1</property>
  <property name="meta.media.frame_rate_num">60</property>
  <property name="meta.media.frame_rate_den">1</property>
  <property name="meta.media.colorspace">709</property>
  <property name="meta.media.color_trc">2</property>
  <property name="meta.media.has_b_frames">2</property>
  <property name="meta.media.width">1920</property>
  <property name="meta.media.height">1080</property>
  <property name="meta.media.color_range">mpeg</property>
  <property name="set.test_audio">1</property>
  <property name="set.test_image">0</property>
  <property name="meta.media.top_field_first">0</property>
  <property name="meta.media.progressive">1</property>
 </producer>
 <playlist id="playlist4">
  <entry producer="producer5" in="00:00:00.000" out="00:00:16.050">
   <property name="kdenlive:id">7</property>
  </entry>
  <blank length="00:00:05.200"/>
  <entry producer="producer5" in="00:00:16.067" out="00:00:20.433">
   <property name="kdenlive:id">7</property>
  </entry>
  <blank length="00:00:08.750"/>
  <entry producer="producer5" in="00:00:20.450" out="00:00:24.483">
   <property name="kdenlive:id">7</property>
  </entry>
  <blank length="00:00:11.967"/>
  <entry producer="producer98" in="00:00:00.000" out="00:00:03.933">
   <property name="kdenlive:id">6</property>
  </entry>
  <blank length="00:00:09.900"/>
  <entry producer="producer98" in="00:00:03.950" out="00:00:18.233">
   <property name="kdenlive:id">6</property>
  </entry>
  <blank length="00:00:02.550"/>
  <entry producer="producer99" in="00:00:00.000" out="00:00:15.883">
   <property name="kdenlive:id">9</property>
  </entry>
  <blank length="00:00:02.533"/>
  <entry producer="producer99" in="00:00:15.900" out="00:00:19.783">
   <property name="kdenlive:id">9</property>
  </entry>
  <blank length="00:00:04.517"/>
  <entry producer="producer99" in="00:00:19.800" out="00:00:24.283">
   <property name="kdenlive:id">9</property>
  </entry>
  <blank length="00:00:06.617"/>
  <entry producer="producer99" in="00:00:24.300" out="00:00:30.250">
   <property name="kdenlive:id">9</property>
  </entry>
  <blank length="00:00:04.050"/>
  <entry producer="producer99" in="00:00:31.033" out="00:00:35.033">
   <property name="kdenlive:id">9</property>
  </entry>
  <blank length="00:00:02.100"/>
  <entry producer="producer100" in="00:00:00.000" out="00:00:09.367">
   <property name="kdenlive:id">5</property>
  </entry>
  <blank length="00:00:16.500"/>
  <entry producer="producer100" in="00:00:09.383" out="00:00:10.483">
   <property name="kdenlive:id">5</property>
  </entry>
  <entry producer="producer101" in="00:00:00.000" out="00:00:05.283">
   <property name="kdenlive:id">4</property>
  </entry>
  <blank length="00:00:05.333"/>
  <entry producer="producer101" in="00:00:05.300" out="00:00:06.483">
   <property name="kdenlive:id">4</property>
  </entry>
  <entry producer="producer102" in="00:00:00.000" out="00:00:00.450">
   <property name="kdenlive:id">3</property>
  </entry>
  <blank length="00:00:06.883"/>
  <entry producer="producer102" in="00:00:00.467" out="00:00:09.433">
   <property name="kdenlive:id">3</property>
  </entry>
  <entry producer="producer102" in="00:00:11.050" out="00:00:24.483">
   <property name="kdenlive:id">3</property>
  </entry>
  <blank length="00:00:02.550"/>
  <entry producer="producer103" in="00:00:00.000" out="00:00:05.117">
   <property name="kdenlive:id">10</property>
  </entry>
  <blank length="00:00:04.250"/>
  <entry producer="producer103" in="00:00:05.133" out="00:00:10.050">
   <property name="kdenlive:id">10</property>
  </entry>
  <blank length="00:00:17.733"/>
  <entry producer="producer103" in="00:00:10.067" out="00:00:10.483">
   <property name="kdenlive:id">10</property>
  </entry>
  <entry producer="producer104" in="00:00:00.000" out="00:00:06.817">
   <property name="kdenlive:id">8</property>
  </entry>
  <blank length="00:00:01.750"/>
  <entry producer="producer104" in="00:00:06.833" out="00:00:14.117">
   <property name="kdenlive:id">8</property>
  </entry>
  <blank length="00:00:04.517"/>
  <entry producer="producer104" in="00:00:14.133" out="00:00:15.767">
   <property name="kdenlive:id">8</property>
  </entry>
  <blank length="00:00:01.483"/>
  <entry producer="producer104" in="00:00:15.783" out="00:00:22.817">
   <property name="kdenlive:id">8</property>
  </entry>
  <blank length="00:00:13.317"/>
  <entry producer="producer104" in="00:00:22.833" out="00:00:27.483">
   <property name="kdenlive:id">8</property>
  </entry>
  <entry producer="producer57" in="00:00:00.000" out="00:00:01.467">
   <property name="kdenlive:id">62</property>
   <filter id="filter6" in="00:00:00.467" out="00:00:01.467">
    <property name="start">1</property>
    <property name="mlt_service">brightness</property>
    <property name="kdenlive_id">fade_to_black</property>
    <property name="end">0</property>
    <property name="alpha">-1</property>
    <property name="kdenlive:collapsed">0</property>
   </filter>
  </entry>
  <entry producer="producer105" in="00:00:00.000" out="00:00:09.950">
   <property name="kdenlive:id">2</property>
  </entry>
  <blank length="00:00:03.383"/>
  <entry producer="producer105" in="00:00:09.967" out="00:00:10.983">
   <property name="kdenlive:id">2</property>
  </entry>
  <entry producer="producer106" in="00:00:00.000" out="00:00:07.067">
   <property name="kdenlive:id">65</property>
  </entry>
  <blank length="00:00:00.633"/>
  <entry producer="producer106" in="00:00:07.083" out="00:00:07.483">
   <property name="kdenlive:id">65</property>
  </entry>
  <entry producer="producer107" in="00:00:00.000" out="00:00:03.567">
   <property name="kdenlive:id">64</property>
  </entry>
  <blank length="00:00:11.983"/>
  <entry producer="producer107" in="00:00:03.583" out="00:00:08.217">
   <property name="kdenlive:id">64</property>
  </entry>
  <blank length="00:00:06.783"/>
  <entry producer="producer107" in="00:00:08.233" out="00:00:08.983">
   <property name="kdenlive:id">64</property>
  </entry>
 </playlist>
 <playlist id="playlist5"/>
 <tractor id="tractor2" in="00:00:00.000" out="00:05:39.183">
  <property name="kdenlive:trackheight">85</property>
  <property name="kdenlive:timeline_active">1</property>
  <property name="kdenlive:collapsed">0</property>
  <property name="kdenlive:thumbs_format"/>
  <property name="kdenlive:audio_rec"/>
  <track hide="audio" producer="playlist4"/>
  <track hide="audio" producer="playlist5"/>
 </tractor>
 <playlist id="playlist6">
  <blank length="00:00:16.067"/>
  <entry producer="producer37" in="00:00:00.000" out="00:00:05.183">
   <property name="kdenlive:id">41</property>
   <property name="kdenlive:activeeffect">-1</property>
  </entry>
  <blank length="00:00:04.383"/>
  <entry producer="producer38" in="00:00:00.000" out="00:00:08.733">
   <property name="kdenlive:id">42</property>
  </entry>
  <blank length="00:00:04.050"/>
  <entry producer="producer39" in="00:00:00.000" out="00:00:11.950">
   <property name="kdenlive:id">43</property>
  </entry>
  <blank length="00:00:03.950"/>
  <entry producer="producer40" in="00:00:00.000" out="00:00:09.883">
   <property name="kdenlive:id">44</property>
  </entry>
  <blank length="00:00:14.300"/>
  <entry producer="producer41" in="00:00:00.000" out="00:00:02.367">
   <property name="kdenlive:id">45</property>
  </entry>
  <blank length="00:00:16.067"/>
  <entry producer="producer3" in="00:00:00.000" out="00:00:02.517">
   <property name="kdenlive:id">46</property>
  </entry>
  <blank length="00:00:03.917"/>
  <entry producer="producer6" in="00:00:00.000" out="00:00:04.483">
   <property name="kdenlive:id">48</property>
  </entry>
  <blank length="00:00:04.500"/>
  <entry producer="producer7" in="00:00:00.000" out="00:00:06.600">
   <property name="kdenlive:id">49</property>
  </entry>
  <blank length="00:00:05.967"/>
  <entry producer="producer8" in="00:00:00.000" out="00:00:04.033">
   <property name="kdenlive:id">50</property>
  </entry>
  <blank length="00:00:04.017"/>
  <entry producer="producer42" in="00:00:00.000" out="00:00:02.083">
   <property name="kdenlive:id">51</property>
   <filter id="filter7" in="00:00:01.100" out="00:00:02.100">
    <property name="start">1</property>
    <property name="mlt_service">brightness</property>
    <property name="kdenlive_id">fade_to_black</property>
    <property name="end">0</property>
    <property name="alpha">-1</property>
    <property name="kdenlive:collapsed">0</property>
   </filter>
  </entry>
  <blank length="00:00:09.383"/>
  <entry producer="producer65" in="00:00:00.000" out="00:00:16.483">
   <property name="kdenlive:id">52</property>
  </entry>
  <blank length="00:00:06.417"/>
  <entry producer="producer46" in="00:00:00.000" out="00:00:05.317">
   <property name="kdenlive:id">53</property>
  </entry>
  <blank length="00:00:01.667"/>
  <entry producer="producer47" in="00:00:00.000" out="00:00:06.867">
   <property name="kdenlive:id">54</property>
  </entry>
  <blank length="00:00:22.433"/>
  <entry producer="producer45" in="00:00:00.000" out="00:00:02.533">
   <property name="kdenlive:id">55</property>
   <filter id="filter8" in="00:00:01.533" out="00:00:02.533">
    <property name="start">1</property>
    <property name="mlt_service">brightness</property>
    <property name="kdenlive_id">fade_to_black</property>
    <property name="end">0</property>
    <property name="alpha">-1</property>
    <property name="kdenlive:collapsed">0</property>
   </filter>
  </entry>
  <blank length="00:00:05.100"/>
  <entry producer="producer49" in="00:00:00.000" out="00:00:04.350">
   <property name="kdenlive:id">56</property>
  </entry>
  <blank length="00:00:04.833"/>
  <entry producer="producer51" in="00:00:00.000" out="00:00:17.733">
   <property name="kdenlive:id">57</property>
  </entry>
  <blank length="00:00:07.267"/>
  <entry producer="producer52" in="00:00:00.000" out="00:00:01.767">
   <property name="kdenlive:id">58</property>
  </entry>
  <blank length="00:00:07.233"/>
  <entry producer="producer53" in="00:00:00.000" out="00:00:04.533">
   <property name="kdenlive:id">59</property>
  </entry>
  <blank length="00:00:01.650"/>
  <entry producer="producer54" in="00:00:00.000" out="00:00:01.467">
   <property name="kdenlive:id">60</property>
  </entry>
  <blank length="00:00:07.050"/>
  <entry producer="producer55" in="00:00:00.000" out="00:00:13.300">
   <property name="kdenlive:id">61</property>
  </entry>
  <blank length="00:00:16.117"/>
  <entry producer="producer58" in="00:00:00.000" out="00:00:03.533">
   <property name="kdenlive:id">63</property>
  </entry>
  <blank length="00:00:07.950"/>
  <entry producer="producer62" in="00:00:00.000" out="00:00:00.617">
   <property name="kdenlive:id">69</property>
  </entry>
  <blank length="00:00:03.883"/>
  <entry producer="producer63" in="00:00:00.000" out="00:00:12.083">
   <property name="kdenlive:id">70</property>
  </entry>
  <blank length="00:00:04.633"/>
  <entry producer="producer64" in="00:00:00.000" out="00:00:06.783">
   <property name="kdenlive:id">71</property>
  </entry>
 </playlist>
 <playlist id="playlist7"/>
 <tractor id="tractor3" in="00:00:00.000" out="00:05:38.417">
  <property name="kdenlive:trackheight">85</property>
  <property name="kdenlive:timeline_active">1</property>
  <property name="kdenlive:collapsed">0</property>
  <property name="kdenlive:thumbs_format"/>
  <property name="kdenlive:audio_rec"/>
  <track hide="audio" producer="playlist6"/>
  <track hide="audio" producer="playlist7"/>
 </tractor>
 <tractor id="tractor4" in="00:00:00.000" out="00:13:59.200">
  <track producer="black_track"/>
  <track producer="tractor0"/>
  <track producer="tractor1"/>
  <track producer="tractor2"/>
  <track producer="tractor3"/>
  <transition id="transition0">
   <property name="a_track">0</property>
   <property name="b_track">1</property>
   <property name="mlt_service">mix</property>
   <property name="kdenlive_id">mix</property>
   <property name="internal_added">237</property>
   <property name="always_active">1</property>
   <property name="accepts_blanks">1</property>
   <property name="sum">1</property>
  </transition>
  <transition id="transition1">
   <property name="a_track">0</property>
   <property name="b_track">2</property>
   <property name="mlt_service">mix</property>
   <property name="kdenlive_id">mix</property>
   <property name="internal_added">237</property>
   <property name="always_active">1</property>
   <property name="accepts_blanks">1</property>
   <property name="sum">1</property>
  </transition>
  <transition id="transition2">
   <property name="a_track">0</property>
   <property name="b_track">3</property>
   <property name="compositing">0</property>
   <property name="distort">0</property>
   <property name="rotate_center">0</property>
   <property name="mlt_service">qtblend</property>
   <property name="kdenlive_id">qtblend</property>
   <property name="internal_added">237</property>
   <property name="always_active">1</property>
  </transition>
  <transition id="transition3">
   <property name="a_track">0</property>
   <property name="b_track">4</property>
   <property name="compositing">0</property>
   <property name="distort">0</property>
   <property name="rotate_center">0</property>
   <property name="mlt_service">qtblend</property>
   <property name="kdenlive_id">qtblend</property>
   <property name="internal_added">237</property>
   <property name="always_active">1</property>
  </transition>
  <filter id="filter9">
   <property name="window">75</property>
   <property name="max_gain">20dB</property>
   <property name="mlt_service">volume</property>
   <property name="internal_added">237</property>
   <property name="disable">1</property>
  </filter>
  <filter id="filter10">
   <property name="channel">-1</property>
   <property name="mlt_service">panner</property>
   <property name="internal_added">237</property>
   <property name="start">0.5</property>
   <property name="disable">1</property>
  </filter>
  <filter id="filter11">
   <property name="iec_scale">0</property>
   <property name="mlt_service">audiolevel</property>
   <property name="disable">1</property>
  </filter>
 </tractor>
</mlt>
